<svg id="svg" version="1.1" xmlns="http://www.w3.org/2000/svg" xmlns:xlink="http://www.w3.org/1999/xlink" width="400" height="376.88888888888886" viewBox="0, 0, 400,376.88888888888886"><g id="svgg"><path id="path0" d="M260.543 139.261 C 260.252 139.612,260.143 141.332,260.214 144.445 L 260.320 149.105 265.787 149.293 L 271.254 149.482 272.394 152.995 L 273.534 156.509 274.696 152.995 L 275.858 149.482 281.284 149.293 L 286.711 149.105 286.817 144.445 C 286.961 138.135,288.363 138.737,273.516 138.737 C 263.270 138.737,260.899 138.833,260.543 139.261 M282.752 141.591 C 282.752 142.009,280.298 146.268,280.055 146.273 C 279.753 146.278,277.474 142.292,277.474 141.759 C 277.474 141.536,278.579 141.376,280.113 141.376 C 281.565 141.376,282.752 141.473,282.752 141.591 M156.167 142.330 C 144.018 143.432,139.995 144.635,138.013 147.757 C 135.135 152.292,132.740 165.135,131.734 181.433 L 131.484 185.485 143.191 185.485 C 154.012 185.485,154.913 185.435,155.099 184.826 C 155.477 183.591,159.849 167.030,159.849 166.832 C 159.849 166.724,160.039 166.635,160.270 166.635 C 160.502 166.635,160.607 166.932,160.504 167.295 C 159.924 169.338,157.021 180.167,156.234 183.223 C 155.727 185.193,155.158 187.144,154.971 187.559 C 154.250 189.153,153.382 194.321,153.697 195.142 C 154.126 196.259,155.513 196.408,158.609 195.668 C 174.787 191.804,194.089 188.148,198.398 188.131 C 200.073 188.125,200.189 188.061,200.189 187.144 C 200.189 184.739,196.388 166.322,195.304 163.473 C 194.911 162.441,195.028 161.726,195.509 162.207 C 196.107 162.805,199.740 179.245,200.815 186.214 C 201.205 188.742,202.078 189.136,205.797 188.459 L 208.200 188.021 207.952 185.151 C 206.139 164.216,203.101 148.428,200.318 145.477 C 199.194 144.285,197.422 143.958,186.239 142.878 C 175.755 141.865,176.437 141.816,176.437 143.592 C 176.437 145.430,175.964 145.816,173.337 146.125 C 168.355 146.711,165.881 145.751,165.881 143.234 L 165.881 141.753 163.713 141.798 C 162.521 141.822,159.125 142.062,156.167 142.330 M268.724 144.020 L 269.964 146.277 267.090 146.277 C 265.509 146.277,264.274 146.150,264.344 145.994 C 265.013 144.514,266.809 141.764,267.107 141.763 C 267.314 141.762,268.042 142.778,268.724 144.020 M274.997 142.345 C 276.696 144.045,274.691 147.021,272.624 145.866 C 271.992 145.513,271.586 144.925,271.508 144.253 C 271.274 142.234,273.609 140.958,274.997 142.345 M301.979 161.734 L 301.979 163.619 303.944 163.619 L 305.909 163.619 304.053 161.734 C 303.032 160.697,302.147 159.849,302.088 159.849 C 302.028 159.849,301.979 160.697,301.979 161.734 M195.476 197.549 C 194.937 197.781,195.313 197.870,196.795 197.862 C 198.378 197.854,198.646 197.780,197.926 197.549 C 196.705 197.158,196.386 197.158,195.476 197.549 M165.881 208.366 C 159.560 210.603,150.390 212.929,146.668 213.239 C 143.084 213.538,143.225 213.040,144.950 219.339 C 145.672 221.973,146.946 226.758,147.783 229.972 C 151.356 243.702,150.712 242.392,154.340 243.303 C 160.854 244.939,177.805 244.516,190.386 242.404 C 191.527 242.212,193.444 241.964,194.648 241.852 C 197.582 241.579,209.065 239.605,212.868 238.719 L 215.922 238.008 218.679 243.509 C 224.166 254.454,235.806 278.311,241.091 289.444 C 242.929 293.316,243.581 293.931,244.881 293.020 C 245.218 292.783,249.225 278.140,250.964 270.785 C 251.571 268.222,251.573 268.246,249.023 252.991 C 245.135 229.738,240.166 213.351,235.477 208.315 L 233.878 206.598 202.236 206.648 L 170.594 206.698 165.881 208.366 M42.557 208.391 C 32.321 215.209,29.629 259.208,38.809 269.663 L 40.040 271.065 44.637 271.065 L 49.234 271.065 50.647 269.619 C 61.268 258.741,53.640 201.009,42.557 208.391 M141.186 226.579 C 141.440 229.967,141.866 231.656,143.150 234.367 C 144.331 236.861,144.583 236.785,143.806 234.168 C 143.486 233.089,142.717 230.303,142.098 227.978 L 140.974 223.751 141.186 226.579 M252.635 283.506 C 249.848 293.477,249.850 293.404,252.494 293.235 L 254.288 293.120 254.163 291.235 C 254.094 290.198,253.828 287.653,253.573 285.580 L 253.109 281.810 252.635 283.506 " stroke="none" fill="#61cec0" fill-rule="evenodd"></path><path id="path1" d="M0.000 188.501 L 0.000 377.003 200.000 377.003 L 400.000 377.003 400.000 188.501 L 400.000 0.000 200.000 0.000 L 0.000 0.000 0.000 188.501 M102.923 52.726 L 102.924 83.883 104.031 84.625 C 105.410 85.549,105.549 86.069,105.556 90.327 L 105.561 93.754 107.163 94.224 C 114.094 96.255,120.264 103.943,120.264 110.548 L 120.264 111.593 114.262 111.593 L 108.260 111.593 108.029 112.645 C 106.668 118.840,98.467 119.282,96.388 113.273 L 95.872 111.781 89.972 111.678 L 84.072 111.574 84.072 110.343 C 84.072 103.800,89.823 96.487,96.607 94.402 L 98.775 93.736 98.775 90.199 C 98.775 86.571,99.081 85.442,100.336 84.440 C 101.032 83.884,101.054 82.920,101.041 53.227 C 101.028 22.348,101.089 20.867,102.362 21.355 C 102.851 21.543,102.922 25.522,102.923 52.726 M326.132 93.133 C 326.772 93.475,326.861 93.949,326.862 96.997 L 326.862 100.471 328.464 100.431 C 329.345 100.409,330.351 100.268,330.698 100.118 C 331.954 99.578,333.075 100.031,333.201 101.129 C 333.306 102.037,333.466 102.153,334.508 102.072 C 335.927 101.961,335.536 101.290,341.014 113.254 C 344.734 121.381,344.930 121.931,344.344 122.579 C 343.742 123.245,344.091 123.272,354.612 123.368 C 363.998 123.455,365.504 123.547,365.504 124.034 C 365.504 124.513,364.427 124.615,358.477 124.702 C 351.838 124.799,351.440 124.845,351.255 125.550 C 350.966 126.657,347.059 126.651,346.466 125.542 C 346.072 124.807,345.676 124.788,330.662 124.788 C 315.579 124.788,315.258 124.803,315.065 125.542 C 314.898 126.182,314.551 126.296,312.772 126.296 C 311.063 126.296,310.603 126.157,310.273 125.542 C 309.892 124.830,309.484 124.788,302.909 124.788 C 296.199 124.788,295.947 124.761,295.947 124.034 C 295.947 123.296,296.199 123.280,308.106 123.280 L 320.264 123.280 320.161 108.484 C 320.066 94.873,320.110 93.650,320.704 93.215 C 321.485 92.644,325.116 92.589,326.132 93.133 M182.947 101.616 C 184.462 102.645,184.910 104.948,183.947 106.749 C 183.396 107.779,183.557 107.849,185.396 107.383 C 193.599 105.300,195.354 115.655,187.280 118.498 C 186.744 118.687,186.693 118.907,186.998 119.709 C 187.203 120.249,187.370 121.186,187.370 121.791 C 187.370 122.694,187.609 122.992,188.690 123.444 C 190.537 124.216,190.274 125.295,188.164 125.600 C 187.475 125.700,187.153 126.097,186.806 127.278 C 185.728 130.945,182.596 133.917,178.424 135.232 L 176.437 135.859 176.437 138.774 L 176.437 141.689 179.359 141.932 C 188.414 142.685,197.245 143.791,199.290 144.428 C 202.378 145.390,205.469 158.138,207.556 178.511 C 207.874 181.621,208.227 185.071,208.340 186.178 C 208.538 188.121,208.579 188.182,209.522 187.945 C 211.173 187.531,214.973 187.692,217.153 188.268 C 218.293 188.570,219.236 188.788,219.249 188.753 C 219.884 187.005,221.409 182.025,221.866 180.207 C 223.091 175.335,224.436 171.719,225.337 170.877 L 226.244 170.028 245.965 170.028 C 270.101 170.028,269.054 169.693,267.043 176.773 C 266.536 178.558,265.629 181.790,265.027 183.955 C 264.426 186.120,263.762 188.326,263.552 188.856 C 263.342 189.387,262.810 191.237,262.370 192.969 C 261.930 194.700,261.331 196.688,261.040 197.386 C 259.936 200.028,257.246 199.811,291.213 199.811 L 321.918 199.811 322.505 200.649 C 322.827 201.110,323.091 202.260,323.091 203.205 C 323.091 206.399,322.715 206.598,316.661 206.598 C 313.770 206.598,311.404 206.658,311.404 206.731 C 311.404 206.805,311.926 208.883,312.564 211.350 C 313.201 213.816,314.203 217.700,314.789 219.981 C 315.375 222.262,317.078 228.709,318.574 234.307 C 320.069 239.906,321.685 246.013,322.164 247.879 C 322.644 249.746,323.632 253.563,324.361 256.362 C 325.090 259.161,326.192 263.402,326.810 265.787 C 327.428 268.172,328.725 273.091,329.693 276.720 C 331.500 283.494,333.122 289.679,334.495 295.026 C 335.379 298.470,335.211 299.914,333.853 300.532 C 331.384 301.657,330.482 300.417,328.731 293.497 C 328.154 291.216,327.051 286.975,326.279 284.072 C 325.508 281.169,324.323 276.673,323.645 274.081 C 322.153 268.378,320.957 263.837,317.436 250.518 C 315.956 244.920,314.347 238.812,313.860 236.946 C 313.373 235.080,312.094 230.245,311.018 226.202 C 309.941 222.158,308.820 217.832,308.526 216.588 C 308.233 215.344,307.751 213.563,307.457 212.630 C 307.163 211.697,306.716 210.170,306.463 209.237 L 306.005 207.540 304.974 211.687 C 304.408 213.968,303.515 217.446,302.990 219.416 C 301.964 223.270,298.842 235.111,297.077 241.847 C 295.984 246.018,295.044 249.585,292.987 257.372 L 291.873 261.588 294.451 271.510 C 295.869 276.967,297.969 284.995,299.119 289.350 C 301.749 299.315,301.732 300.471,298.963 300.471 C 297.429 300.471,296.853 299.521,295.762 295.193 C 295.214 293.016,294.367 289.793,293.879 288.030 C 293.392 286.268,292.290 282.111,291.431 278.794 C 289.444 271.126,289.567 271.486,289.175 272.196 C 289.003 272.507,288.154 275.476,287.289 278.794 C 286.423 282.111,285.202 286.777,284.575 289.161 C 283.948 291.546,283.096 294.900,282.681 296.615 C 282.031 299.305,281.780 299.811,280.851 300.291 C 277.911 301.811,276.281 299.335,277.618 295.382 C 277.899 294.552,278.233 293.431,278.360 292.891 L 278.592 291.908 270.838 291.714 C 261.476 291.480,261.888 291.693,261.692 286.983 C 261.562 283.860,261.441 283.460,259.215 278.796 C 257.928 276.099,256.644 273.317,256.362 272.614 L 255.849 271.336 254.581 276.007 L 253.312 280.679 253.908 285.957 C 254.235 288.860,254.540 291.640,254.585 292.134 C 254.654 292.904,254.225 293.402,253.045 293.923 C 252.983 293.951,253.046 294.427,253.185 294.982 C 253.529 296.352,254.621 296.984,258.315 297.952 C 261.790 298.863,262.437 299.674,260.909 301.202 C 259.714 302.397,245.116 302.194,243.887 300.966 C 243.662 300.741,243.388 299.138,243.277 297.404 C 243.060 294.008,243.154 294.255,237.988 283.506 C 236.643 280.707,234.774 276.805,233.835 274.835 C 231.392 269.711,216.022 238.517,215.861 238.356 C 215.787 238.282,214.818 238.478,213.707 238.792 C 212.596 239.106,208.633 239.880,204.901 240.513 C 195.290 242.144,195.889 241.925,198.121 242.996 C 206.745 247.136,197.887 251.596,178.641 252.805 L 175.001 253.034 175.689 255.358 C 176.067 256.636,176.716 258.699,177.131 259.943 C 177.547 261.188,178.596 264.496,179.464 267.295 C 180.331 270.094,181.271 272.978,181.553 273.704 C 181.835 274.430,182.424 276.296,182.862 277.851 C 183.300 279.406,183.816 281.018,184.007 281.433 C 184.345 282.162,185.445 285.648,187.816 293.497 C 188.443 295.570,189.107 297.552,189.293 297.900 C 189.525 298.335,189.445 298.719,189.039 299.126 C 187.989 300.175,187.280 299.737,186.645 297.644 C 186.393 296.814,186.033 295.796,185.844 295.382 C 185.655 294.967,185.078 293.186,184.560 291.423 C 184.043 289.661,183.191 286.952,182.668 285.404 C 182.144 283.857,181.715 282.395,181.715 282.157 C 181.715 281.703,180.721 280.980,176.060 278.046 C 174.505 277.067,172.790 275.957,172.249 275.579 C 171.452 275.021,171.166 274.981,170.741 275.365 C 170.453 275.626,168.266 277.079,165.881 278.593 C 163.497 280.107,161.502 281.381,161.448 281.424 C 161.394 281.467,161.667 282.504,162.055 283.729 C 162.442 284.954,162.972 286.890,163.233 288.030 C 163.494 289.171,164.196 291.872,164.794 294.033 C 166.110 298.791,166.110 298.769,164.956 299.923 C 162.652 302.226,161.011 300.706,159.613 294.974 L 158.567 290.688 157.179 294.910 C 156.416 297.232,155.531 299.296,155.213 299.497 C 154.475 299.963,153.314 299.074,153.565 298.236 C 153.662 297.910,154.183 296.117,154.722 294.251 C 155.262 292.385,155.847 290.603,156.022 290.292 C 157.364 287.914,157.352 286.074,155.961 281.042 C 155.218 278.354,153.320 271.150,151.742 265.033 C 147.722 249.442,148.148 250.534,145.788 249.769 C 141.052 248.234,140.248 245.264,144.048 243.338 L 145.817 242.442 144.967 239.506 C 144.500 237.891,143.671 235.790,143.124 234.836 C 142.093 233.039,140.638 227.070,140.628 224.596 C 140.622 223.232,139.144 216.402,138.457 214.567 C 138.274 214.077,137.596 213.454,136.950 213.183 L 135.776 212.689 135.012 215.207 C 134.591 216.591,134.001 218.741,133.701 219.983 C 133.400 221.226,132.364 225.212,131.398 228.841 C 130.432 232.469,129.154 237.304,128.559 239.585 C 126.099 249.019,125.136 252.689,123.693 258.150 L 122.174 263.896 124.037 270.968 C 132.304 302.336,132.003 300.471,128.796 300.471 C 126.919 300.471,126.571 299.783,124.601 292.177 C 120.681 277.039,119.852 273.921,119.709 273.777 C 119.561 273.630,119.120 275.110,118.439 278.040 C 118.247 278.869,117.291 282.516,116.315 286.145 C 115.339 289.774,114.203 294.185,113.790 295.947 C 112.725 300.494,111.085 301.852,108.816 300.067 C 107.528 299.053,107.526 299.072,109.557 291.388 C 110.511 287.779,111.753 283.044,112.317 280.867 C 112.881 278.690,114.157 273.770,115.151 269.934 L 116.959 262.959 115.063 255.796 C 112.768 247.128,105.114 217.991,103.822 213.007 C 102.624 208.383,102.508 208.016,102.313 208.212 C 102.124 208.401,101.061 212.172,99.528 218.096 C 98.938 220.377,97.156 227.163,95.570 233.176 C 93.983 239.189,92.377 245.297,92.000 246.748 C 90.631 252.029,84.457 275.475,83.710 278.228 C 83.289 279.783,81.911 285.042,80.649 289.915 C 77.997 300.151,77.809 300.561,75.852 300.398 C 73.742 300.223,73.387 299.146,74.262 295.570 C 75.010 292.512,89.643 236.646,91.938 228.087 C 94.771 217.517,97.267 207.747,97.267 207.220 C 97.267 206.670,96.630 206.598,91.813 206.598 C 85.526 206.598,85.580 206.628,85.580 203.068 C 85.580 199.548,83.673 199.811,109.117 199.811 L 131.470 199.811 131.692 186.711 C 132.064 164.702,134.655 150.313,138.985 146.203 C 141.586 143.734,150.553 142.053,163.242 141.653 L 166.070 141.565 165.930 136.497 C 165.780 131.022,165.452 130.041,164.030 130.802 C 161.557 132.125,159.714 129.060,160.980 125.731 C 161.278 124.948,161.178 124.327,160.509 122.784 C 157.525 115.908,161.073 107.588,166.861 107.886 C 169.269 108.011,169.281 108.006,169.662 106.851 C 171.151 102.330,179.282 99.125,182.947 101.616 M333.270 114.232 L 333.270 123.280 337.606 123.280 C 339.991 123.280,341.942 123.211,341.942 123.127 C 341.942 123.043,340.265 119.339,338.216 114.895 C 336.168 110.451,334.375 106.448,334.233 105.999 C 333.514 103.737,333.270 105.824,333.270 114.232 M273.823 113.534 C 276.011 114.686,275.660 117.638,273.233 118.498 C 272.656 118.703,272.573 119.279,272.573 123.057 C 272.573 128.343,273.511 127.864,263.251 127.818 C 253.193 127.773,254.113 128.355,254.106 122.030 C 254.098 115.271,253.401 115.804,262.298 115.757 C 267.589 115.728,269.789 115.590,269.895 115.279 C 270.470 113.600,272.356 112.762,273.823 113.534 M272.406 114.951 C 272.290 115.139,272.354 115.691,272.548 116.176 C 272.879 117.002,272.904 116.980,272.926 115.834 C 272.950 114.595,272.792 114.327,272.406 114.951 M241.515 126.908 C 244.119 128.143,244.473 129.158,244.594 135.721 C 244.779 145.828,244.680 145.900,230.537 145.900 C 216.421 145.900,216.368 145.865,216.358 136.389 C 216.350 129.338,216.866 127.887,219.800 126.717 C 221.516 126.032,240.013 126.195,241.515 126.908 M286.824 139.189 C 287.124 139.490,287.276 141.127,287.276 144.064 C 287.276 149.888,287.518 149.670,281.051 149.670 L 276.012 149.670 275.050 152.780 C 273.752 156.975,273.524 157.268,272.957 155.465 C 272.704 154.662,272.153 153.030,271.731 151.838 L 270.964 149.670 266.049 149.670 C 259.617 149.670,259.755 149.788,259.755 144.309 C 259.755 138.143,258.294 138.737,273.453 138.737 C 282.998 138.737,286.489 138.855,286.824 139.189 M272.298 142.685 C 271.297 143.556,271.278 143.638,271.831 144.653 C 272.556 145.983,274.043 146.230,274.994 145.179 C 276.670 143.327,274.193 141.036,272.298 142.685 M278.270 143.167 C 278.741 143.944,279.305 144.877,279.522 145.240 C 280.140 146.272,280.471 145.891,282.304 142.036 C 282.377 141.880,281.307 141.753,279.925 141.753 L 277.413 141.753 278.270 143.167 M265.779 143.915 C 265.275 144.903,264.801 145.839,264.728 145.994 C 264.654 146.150,265.721 146.277,267.099 146.277 L 269.605 146.277 268.544 144.322 C 267.173 141.796,266.883 141.754,265.779 143.915 M304.110 161.521 L 306.126 163.570 306.126 172.756 C 306.126 182.988,306.162 182.846,303.600 182.846 C 302.160 182.846,301.979 182.943,301.979 183.713 C 301.979 185.376,301.486 185.485,294.018 185.485 C 290.136 185.485,286.692 185.382,286.364 185.257 C 285.840 185.055,285.768 183.710,285.768 174.022 C 285.768 161.909,285.729 162.111,288.106 162.111 C 289.266 162.111,289.538 161.974,289.538 161.388 C 289.538 159.490,289.598 159.472,296.045 159.472 L 302.093 159.472 304.110 161.521 M242.207 183.395 C 241.174 184.428,241.126 184.650,241.645 186.016 C 242.489 188.236,246.160 187.294,246.177 184.853 C 246.191 182.910,243.632 181.970,242.207 183.395 M212.163 197.062 C 212.632 197.152,213.310 197.149,213.671 197.055 C 214.031 196.960,213.648 196.886,212.818 196.891 C 211.989 196.895,211.694 196.972,212.163 197.062 M62.750 204.092 C 65.326 206.667,65.227 218.832,62.552 228.485 C 61.569 232.033,61.233 239.397,62.055 239.397 C 62.117 239.397,62.929 238.883,63.859 238.255 C 67.815 235.585,71.874 234.657,72.980 236.170 C 75.306 239.350,69.765 251.000,62.005 259.246 C 60.687 260.646,59.780 262.002,59.521 262.959 C 58.741 265.840,57.966 267.869,57.037 269.463 L 56.102 271.065 59.595 271.065 C 64.061 271.065,64.467 271.366,64.467 274.678 C 64.467 277.739,64.003 278.228,61.091 278.228 L 58.900 278.228 58.650 280.773 C 58.513 282.172,58.075 286.117,57.678 289.538 C 57.281 292.959,56.853 296.730,56.727 297.917 C 56.304 301.909,56.704 301.773,44.938 301.902 L 34.766 302.013 33.705 301.101 C 32.745 300.275,32.601 299.819,32.183 296.277 C 30.621 283.054,30.169 279.119,30.165 278.699 C 30.162 278.377,29.469 278.228,27.974 278.228 C 25.157 278.228,24.882 277.909,24.882 274.647 C 24.882 271.209,25.048 271.065,28.997 271.065 L 32.207 271.065 29.699 268.520 C 23.537 262.268,19.445 254.827,16.169 243.921 C 15.515 241.745,15.314 240.110,15.294 236.822 L 15.269 232.551 16.500 231.450 C 18.968 229.242,22.350 230.792,28.529 236.962 L 32.741 241.167 32.981 237.926 C 34.782 213.638,44.248 199.205,49.602 212.585 C 50.360 214.480,50.631 214.514,51.439 212.812 C 54.857 205.607,60.170 201.512,62.750 204.092 M241.198 206.497 C 242.084 206.577,243.441 206.576,244.214 206.495 C 244.986 206.414,244.260 206.348,242.601 206.350 C 240.943 206.351,240.311 206.417,241.198 206.497 M107.376 206.793 C 107.268 206.901,107.817 209.403,108.595 212.354 C 111.349 222.802,116.189 241.132,116.930 243.921 C 117.342 245.476,118.078 248.275,118.563 250.141 C 119.049 252.008,119.530 253.280,119.633 252.969 C 119.735 252.658,119.988 251.725,120.194 250.895 C 120.401 250.066,121.868 244.467,123.455 238.454 C 125.042 232.441,126.851 225.570,127.474 223.186 C 128.098 220.801,129.212 216.560,129.950 213.761 C 130.689 210.961,131.375 208.205,131.476 207.634 L 131.660 206.598 119.616 206.598 C 112.991 206.598,107.483 206.686,107.376 206.793 M249.972 207.111 C 252.964 207.918,254.297 209.004,255.251 211.409 C 255.722 212.599,256.234 213.742,256.389 213.949 C 256.722 214.397,258.216 219.302,260.000 225.805 C 261.456 231.114,261.507 231.221,261.860 229.733 C 262.001 229.139,263.366 223.870,264.894 218.026 C 266.422 212.182,267.672 207.219,267.672 206.999 C 267.672 206.725,264.592 206.606,257.964 206.623 C 249.584 206.645,248.491 206.712,249.972 207.111 M277.777 206.797 C 277.521 207.053,277.847 208.394,281.805 223.374 C 285.009 235.499,285.652 237.954,287.978 246.937 C 288.596 249.321,289.198 251.018,289.316 250.707 C 289.435 250.396,290.815 245.221,292.383 239.208 C 293.951 233.195,295.751 226.324,296.383 223.940 C 297.015 221.555,298.011 217.738,298.598 215.457 C 299.184 213.176,299.928 210.377,300.251 209.237 C 300.575 208.096,300.841 207.036,300.844 206.880 C 300.849 206.565,278.092 206.482,277.777 206.797 M272.397 208.523 C 272.290 208.812,271.003 213.629,269.537 219.227 C 268.071 224.826,266.259 231.697,265.511 234.496 C 263.887 240.570,263.902 240.063,265.187 245.240 C 265.753 247.521,266.628 251.169,267.130 253.346 C 267.632 255.523,268.289 258.153,268.589 259.189 C 268.889 260.226,269.574 263.176,270.110 265.744 C 270.646 268.313,271.168 270.550,271.271 270.717 C 271.643 271.319,273.726 282.527,273.551 282.984 C 273.452 283.241,272.967 283.506,272.474 283.573 C 271.184 283.748,271.760 285.988,273.247 286.584 C 273.810 286.809,274.609 287.128,275.024 287.294 C 275.438 287.459,276.287 287.701,276.909 287.830 C 277.531 287.960,278.321 288.149,278.664 288.251 C 279.366 288.459,279.946 286.989,281.205 281.810 C 281.608 280.151,282.732 275.825,283.702 272.196 C 286.942 260.077,286.816 261.474,285.217 255.404 C 284.454 252.509,283.237 247.851,282.511 245.052 C 281.785 242.253,280.875 238.775,280.489 237.323 C 278.104 228.366,273.934 212.472,273.471 210.574 C 272.865 208.092,272.684 207.746,272.397 208.523 M153.910 252.634 C 154.020 253.129,154.714 255.825,155.452 258.624 C 156.190 261.423,157.501 266.428,158.366 269.746 C 160.298 277.156,160.236 277.090,161.502 273.051 C 162.071 271.233,162.936 268.558,163.423 267.107 C 165.606 260.603,167.848 253.302,167.706 253.160 C 167.620 253.074,165.012 252.825,161.909 252.606 C 158.806 252.387,155.692 252.101,154.989 251.971 C 153.790 251.749,153.722 251.791,153.910 252.634 M169.961 254.949 C 169.613 256.037,168.806 258.624,168.169 260.697 C 167.531 262.771,166.848 264.807,166.651 265.221 C 166.454 265.636,166.081 266.722,165.822 267.635 C 165.286 269.521,165.057 269.233,169.119 271.788 L 171.414 273.232 173.643 271.788 C 174.869 270.995,176.241 270.041,176.692 269.668 L 177.511 268.992 175.808 263.713 C 171.892 251.584,171.314 250.718,169.961 254.949 M250.729 261.379 C 250.689 262.631,251.568 267.295,251.844 267.295 C 252.616 267.295,252.500 264.547,251.648 262.673 C 251.154 261.586,250.741 261.004,250.729 261.379 M164.301 272.669 C 163.950 273.549,163.474 275.001,163.243 275.895 C 163.012 276.790,162.730 277.765,162.616 278.063 C 162.276 278.948,162.943 278.700,165.710 276.910 C 168.897 274.849,169.841 274.137,169.626 273.955 C 169.119 273.523,165.295 271.065,165.132 271.066 C 165.026 271.067,164.652 271.788,164.301 272.669 M176.039 272.060 C 172.651 273.980,172.650 273.945,176.153 276.245 C 180.220 278.916,180.607 279.123,180.412 278.520 C 180.326 278.256,179.818 276.563,179.283 274.759 C 178.118 270.835,178.151 270.863,176.039 272.060 " stroke="none" fill="#f9f9f9" fill-rule="evenodd"></path><path id="path2" d="M101.791 52.956 L 101.791 84.045 100.943 84.497 C 99.394 85.322,99.176 85.986,99.164 89.926 L 99.152 93.706 101.979 93.706 L 104.807 93.706 104.807 89.654 L 104.807 85.602 103.676 84.766 L 102.545 83.930 102.545 52.898 C 102.545 32.461,102.416 21.866,102.168 21.866 C 101.919 21.866,101.791 32.481,101.791 52.956 M176.740 101.564 C 173.527 102.429,170.441 105.084,169.838 107.501 C 169.597 108.467,169.518 108.493,167.428 108.304 C 161.537 107.770,158.230 114.515,160.718 121.989 C 161.305 123.749,161.503 124.968,161.329 125.730 C 160.742 128.289,160.928 129.638,161.961 130.314 C 163.996 131.648,165.620 128.571,163.827 126.778 C 162.305 125.256,163.171 122.149,165.118 122.149 C 165.533 122.149,166.097 121.587,166.538 120.735 C 168.129 117.654,169.619 117.092,176.940 116.810 C 180.500 116.673,183.873 116.443,184.438 116.297 C 185.304 116.074,185.533 116.186,185.912 117.018 C 187.138 119.708,192.271 115.121,192.271 111.336 C 192.271 108.042,187.731 106.447,183.938 108.409 C 182.795 109.000,182.352 108.468,183.245 107.575 C 183.464 107.356,183.740 106.245,183.857 105.107 C 184.225 101.547,181.621 100.250,176.740 101.564 M183.320 123.571 C 183.685 124.566,183.671 124.966,183.248 125.644 C 182.770 126.412,182.779 126.440,183.351 125.967 C 184.126 125.327,184.158 124.039,183.423 123.069 C 182.923 122.408,182.913 122.457,183.320 123.571 M177.274 128.017 C 177.838 128.604,178.387 128.996,178.495 128.888 C 178.602 128.781,178.141 128.301,177.469 127.822 L 176.249 126.951 177.274 128.017 M166.258 135.258 L 166.258 138.305 168.404 137.013 C 169.584 136.302,170.814 135.718,171.137 135.714 C 171.460 135.710,170.802 135.199,169.674 134.577 C 168.547 133.956,167.317 133.169,166.941 132.829 C 166.287 132.237,166.258 132.341,166.258 135.258 M195.287 162.646 C 195.287 162.802,195.952 165.587,196.764 168.835 C 197.575 172.083,198.690 177.286,199.240 180.396 C 200.332 186.573,201.029 189.563,200.689 186.616 C 199.961 180.299,195.287 159.559,195.287 162.646 M159.829 167.630 C 159.621 168.178,159.037 170.256,158.532 172.249 C 158.027 174.241,157.090 177.883,156.451 180.341 C 155.812 182.800,155.349 184.992,155.423 185.214 C 155.497 185.436,156.022 183.764,156.589 181.498 C 158.174 175.170,160.092 168.028,160.404 167.295 C 160.558 166.932,160.577 166.635,160.446 166.635 C 160.315 166.635,160.037 167.083,159.829 167.630 M225.463 171.144 C 225.057 171.550,224.362 173.119,223.919 174.631 C 223.475 176.143,222.518 179.416,221.790 181.904 C 221.063 184.392,220.075 187.710,219.594 189.276 C 219.114 190.843,218.438 193.218,218.092 194.554 C 217.147 198.207,218.327 197.926,203.912 197.926 C 191.392 197.926,191.140 197.941,191.140 198.680 C 191.140 199.429,191.392 199.434,225.626 199.434 L 260.111 199.434 260.717 197.267 C 261.051 196.074,261.727 193.742,262.220 192.083 C 264.524 184.323,267.663 173.318,267.668 172.979 C 267.670 172.839,267.233 172.203,266.696 171.565 L 265.720 170.405 245.961 170.405 C 226.843 170.405,226.178 170.429,225.463 171.144 M245.131 182.606 C 246.678 183.781,246.516 186.873,244.874 187.502 C 241.949 188.625,239.634 185.214,241.830 183.018 C 242.844 182.004,244.128 181.844,245.131 182.606 M236.456 207.252 L 234.834 207.397 235.898 208.608 C 240.363 213.693,244.875 228.617,248.831 251.383 C 249.922 257.661,252.049 264.193,252.769 263.474 C 252.847 263.395,253.157 262.314,253.456 261.072 C 253.756 259.829,255.627 252.620,257.615 245.052 L 261.228 231.291 260.460 228.652 C 260.037 227.201,259.304 224.656,258.831 222.997 C 256.114 213.474,254.269 209.405,252.215 208.407 C 249.680 207.177,242.869 206.677,236.456 207.252 M59.917 235.709 C 59.413 236.799,58.264 238.600,57.364 239.712 C 55.932 241.481,55.757 241.894,55.966 243.010 L 56.205 244.286 59.024 241.936 L 61.842 239.585 61.609 236.946 C 61.305 233.514,61.026 233.310,59.917 235.709 M262.246 247.426 C 260.645 253.690,258.794 260.725,257.099 266.980 L 256.009 271.001 258.676 276.782 C 260.143 279.962,261.512 282.669,261.719 282.798 C 261.926 282.928,262.120 284.573,262.150 286.456 C 262.227 291.203,262.512 291.325,273.704 291.387 C 278.457 291.414,278.805 291.316,279.173 289.853 C 279.441 288.783,279.556 288.839,274.119 287.417 C 271.577 286.752,269.923 282.752,272.191 282.752 C 273.395 282.752,273.408 282.733,273.155 281.338 C 272.353 276.906,264.672 244.270,264.020 242.525 C 263.780 241.883,263.378 242.995,262.246 247.426 M192.240 242.185 C 191.702 242.695,169.680 244.654,164.345 244.667 C 160.811 244.676,154.750 243.772,152.723 242.933 C 150.935 242.195,150.925 242.272,152.169 247.027 L 153.278 251.270 156.281 251.720 C 157.933 251.968,161.370 252.292,163.920 252.440 C 167.020 252.621,168.504 252.847,168.400 253.122 C 168.315 253.349,167.097 257.097,165.695 261.451 C 164.292 265.806,162.513 271.306,161.742 273.674 C 160.535 277.377,160.390 278.181,160.705 279.423 C 161.174 281.269,160.833 281.365,166.282 277.851 C 171.928 274.209,170.813 274.199,176.650 277.947 C 182.253 281.545,181.456 280.230,185.372 292.344 C 186.575 296.065,187.771 299.175,188.030 299.256 C 189.390 299.680,188.935 297.596,185.293 286.711 C 184.807 285.259,183.196 280.254,181.712 275.589 C 180.229 270.924,178.011 263.981,176.784 260.162 C 175.556 256.343,174.552 253.103,174.552 252.963 C 174.552 252.822,176.556 252.600,179.005 252.468 C 194.660 251.627,204.644 247.602,199.508 244.203 C 197.416 242.818,192.896 241.563,192.240 242.185 M144.581 243.416 C 141.648 244.962,141.101 246.321,142.826 247.772 C 143.995 248.756,147.324 250.163,147.668 249.818 C 147.913 249.574,146.208 242.782,145.908 242.805 C 145.800 242.813,145.203 243.088,144.581 243.416 M172.577 253.063 C 172.786 253.322,173.399 254.995,173.939 256.780 C 174.479 258.565,175.609 262.106,176.450 264.649 C 177.291 267.192,177.896 269.355,177.793 269.458 C 177.691 269.560,176.218 270.547,174.520 271.652 L 171.432 273.660 169.316 272.299 C 168.153 271.550,166.735 270.669,166.166 270.341 C 164.984 269.660,164.918 269.235,165.663 267.119 C 165.957 266.283,166.987 263.054,167.951 259.943 C 168.916 256.833,169.859 253.907,170.047 253.440 C 170.427 252.498,171.941 252.273,172.577 253.063 M58.790 262.173 C 58.102 262.826,54.620 264.656,54.066 264.656 C 53.837 264.656,53.326 265.375,52.932 266.255 C 52.538 267.134,51.665 268.576,50.992 269.459 L 49.769 271.065 52.807 271.065 L 55.845 271.065 57.101 268.332 C 59.292 263.560,59.983 261.042,58.790 262.173 M179.625 274.620 C 181.461 280.202,181.499 280.174,176.482 276.939 L 172.191 274.173 174.974 272.263 C 176.504 271.212,177.858 270.343,177.982 270.331 C 178.106 270.320,178.846 272.250,179.625 274.620 M168.104 272.435 C 169.360 273.237,170.350 274.014,170.303 274.163 C 170.189 274.521,161.976 279.726,161.801 279.551 C 161.726 279.477,162.314 277.442,163.108 275.031 C 164.751 270.038,164.527 270.154,168.104 272.435 M157.535 287.088 C 156.603 288.640,153.817 298.730,154.247 298.996 C 155.546 299.798,158.683 291.006,158.088 288.232 C 157.909 287.395,157.660 286.880,157.535 287.088 M243.550 296.607 C 243.557 300.909,243.554 300.906,247.561 301.257 C 254.492 301.863,259.666 301.691,260.533 300.825 C 261.879 299.478,261.506 299.219,255.957 297.655 C 253.848 297.061,252.592 295.636,252.592 293.837 C 252.592 293.417,252.270 293.292,251.407 293.379 C 250.274 293.491,250.181 293.631,249.330 296.502 C 248.295 299.992,247.813 300.600,246.123 300.552 C 243.949 300.490,243.519 298.815,244.528 294.345 C 244.709 293.545,244.624 293.308,244.153 293.308 C 243.638 293.308,243.545 293.818,243.550 296.607 " stroke="none" fill="#130f12" fill-rule="evenodd"></path><path id="path3" d="M101.587 21.960 C 101.488 22.220,101.452 36.258,101.507 53.157 L 101.607 83.883 101.699 52.906 C 101.771 28.547,101.891 21.888,102.262 21.739 C 102.631 21.590,102.629 21.542,102.250 21.519 C 101.984 21.503,101.686 21.701,101.587 21.960 M320.735 93.527 C 319.898 94.014,319.700 122.000,320.528 122.828 C 321.244 123.544,325.971 123.425,326.256 122.684 C 326.844 121.150,326.499 93.583,325.888 93.349 C 324.940 92.985,321.459 93.105,320.735 93.527 M97.475 94.463 C 90.698 96.238,84.865 103.037,84.394 109.708 L 84.275 111.404 102.130 111.502 L 119.985 111.600 119.730 109.240 C 118.640 99.153,107.586 91.813,97.475 94.463 M330.347 100.718 C 329.686 101.379,329.670 122.168,330.330 122.828 C 331.136 123.633,332.853 123.384,333.094 122.426 C 333.211 121.956,333.257 116.824,333.195 111.021 L 333.082 100.471 331.949 100.360 C 331.326 100.299,330.605 100.460,330.347 100.718 M327.992 111.571 C 327.992 116.863,328.130 119.887,328.369 119.887 C 328.609 119.887,328.746 116.941,328.746 111.804 C 328.746 106.821,328.602 103.631,328.369 103.487 C 328.122 103.335,327.992 106.122,327.992 111.571 M192.359 111.593 C 192.359 112.319,192.436 112.615,192.531 112.253 C 192.626 111.890,192.626 111.296,192.531 110.933 C 192.436 110.570,192.359 110.867,192.359 111.593 M324.761 112.562 C 325.506 113.308,325.508 113.844,324.767 114.902 C 323.381 116.880,320.818 114.858,321.974 112.699 C 322.446 111.817,323.942 111.743,324.761 112.562 M254.854 116.289 C 254.854 116.409,256.796 117.778,259.169 119.332 L 263.485 122.158 266.697 120.064 C 268.463 118.913,270.018 117.794,270.151 117.579 C 270.398 117.179,268.371 118.382,265.531 120.320 C 263.455 121.736,263.568 121.760,259.406 119.013 C 255.009 116.110,254.854 116.018,254.854 116.289 M324.317 116.842 C 326.302 116.897,325.339 117.625,323.280 117.625 C 322.139 117.625,321.206 117.469,321.206 117.279 C 321.206 116.853,321.958 116.568,322.714 116.708 C 323.025 116.766,323.746 116.826,324.317 116.842 M325.353 119.510 C 325.353 119.717,324.420 119.887,323.280 119.887 C 322.139 119.887,321.206 119.717,321.206 119.510 C 321.206 119.303,322.139 119.133,323.280 119.133 C 324.420 119.133,325.353 119.303,325.353 119.510 M222.432 136.062 L 222.432 142.434 224.317 142.565 L 226.202 142.696 226.202 136.192 L 226.202 129.689 224.317 129.689 L 222.432 129.689 222.432 136.062 M166.015 135.533 C 166.014 137.399,166.078 138.210,166.157 137.335 C 166.236 136.460,166.237 134.933,166.159 133.942 C 166.081 132.950,166.016 133.666,166.015 135.533 M234.873 138.606 L 234.873 142.434 236.758 142.565 L 238.643 142.696 238.643 138.737 L 238.643 134.779 236.758 134.779 L 234.873 134.779 234.873 138.606 M228.464 140.457 L 228.464 142.507 230.349 142.507 L 232.234 142.507 232.234 140.811 C 232.234 139.877,232.235 138.995,232.237 138.848 C 232.239 138.702,231.391 138.543,230.352 138.495 L 228.464 138.408 228.464 140.457 M297.906 164.373 L 298.021 166.447 299.811 166.562 C 302.058 166.706,302.048 166.479,299.697 164.171 L 297.792 162.300 297.906 164.373 M287.653 164.714 C 287.653 164.901,288.518 165.113,289.574 165.185 C 291.420 165.311,292.051 165.127,291.539 164.614 C 291.165 164.240,287.653 164.330,287.653 164.714 M287.653 167.012 C 287.653 167.220,288.491 167.389,289.516 167.389 C 290.540 167.389,291.484 167.220,291.612 167.012 C 291.756 166.778,291.050 166.635,289.749 166.635 C 288.596 166.635,287.653 166.805,287.653 167.012 M236.501 170.311 C 241.855 170.370,250.507 170.370,255.729 170.311 C 260.950 170.252,256.569 170.203,245.994 170.203 C 235.419 170.203,231.148 170.252,236.501 170.311 M287.443 170.364 C 287.362 170.444,287.387 170.656,287.497 170.835 C 287.774 171.283,299.994 171.249,300.272 170.800 C 300.483 170.459,287.777 170.027,287.443 170.364 M287.465 172.667 C 287.313 172.913,289.542 173.044,293.874 173.044 C 298.206 173.044,300.435 172.913,300.283 172.667 C 300.143 172.441,297.584 172.290,293.874 172.290 C 290.163 172.290,287.605 172.441,287.465 172.667 M287.469 174.546 C 287.336 174.760,287.458 175.023,287.739 175.130 C 288.695 175.498,300.287 175.135,300.189 174.741 C 300.060 174.218,287.787 174.030,287.469 174.546 M212.165 197.823 C 212.843 197.907,213.861 197.905,214.427 197.819 C 214.994 197.733,214.439 197.664,213.195 197.666 C 211.951 197.668,211.487 197.739,212.165 197.823 M60.156 203.478 C 57.538 204.145,53.930 208.449,50.920 214.496 C 50.771 214.797,50.951 215.839,51.321 216.812 C 52.861 220.867,54.413 228.280,55.434 236.468 C 55.686 238.486,56.040 240.045,56.221 239.933 C 56.402 239.821,56.550 239.909,56.550 240.129 C 56.550 240.348,56.381 240.528,56.173 240.528 C 55.966 240.528,55.796 240.724,55.796 240.963 C 55.796 241.212,56.116 241.109,56.542 240.724 C 56.951 240.353,57.204 239.916,57.103 239.752 C 56.916 239.451,58.351 236.758,58.698 236.758 C 58.802 236.758,58.518 237.383,58.067 238.147 C 57.480 239.143,57.423 239.391,57.866 239.023 C 58.684 238.344,59.651 236.446,59.392 236.027 C 59.070 235.506,59.600 234.472,60.047 234.748 C 60.298 234.904,60.359 234.763,60.210 234.374 C 60.062 233.990,60.146 233.785,60.428 233.841 C 60.680 233.890,60.898 233.676,60.914 233.365 C 60.929 233.054,61.312 231.630,61.766 230.201 C 65.317 219.016,64.832 201.842,61.005 203.248 C 60.940 203.272,60.557 203.376,60.156 203.478 M132.098 207.041 C 132.011 207.182,131.531 208.878,131.031 210.811 C 130.531 212.744,128.396 220.858,126.286 228.841 C 124.177 236.824,121.873 245.621,121.167 248.391 C 120.460 251.160,119.811 253.541,119.725 253.680 C 119.638 253.820,120.120 256.038,120.796 258.608 L 122.023 263.282 122.655 260.859 C 123.003 259.526,123.694 256.909,124.190 255.042 C 124.686 253.176,126.992 244.439,129.313 235.627 C 134.719 215.099,135.613 211.722,136.243 209.425 L 136.760 207.540 137.537 210.179 C 138.463 213.325,140.639 221.655,141.771 226.390 C 142.218 228.256,143.093 231.565,143.717 233.742 C 144.342 235.919,145.160 238.888,145.536 240.339 C 145.912 241.791,146.642 244.420,147.157 246.183 C 147.672 247.945,148.431 250.829,148.842 252.592 C 149.254 254.354,151.391 262.639,153.592 271.002 C 155.792 279.366,157.480 286.390,157.343 286.612 C 157.201 286.841,157.270 286.907,157.502 286.763 C 157.765 286.601,158.134 287.553,158.540 289.438 C 160.424 298.191,161.407 300.455,163.328 300.465 C 165.845 300.480,165.856 299.482,163.446 290.114 C 162.253 285.476,161.392 281.493,161.533 281.264 C 161.675 281.036,161.584 280.895,161.331 280.952 C 160.784 281.075,160.091 278.786,160.362 277.750 C 160.467 277.350,160.447 277.128,160.318 277.257 C 160.139 277.436,156.129 262.698,153.691 252.902 C 153.498 252.126,153.592 251.854,154.100 251.721 C 154.605 251.589,154.564 251.538,153.926 251.505 C 153.294 251.471,153.003 251.119,152.724 250.047 C 151.533 245.483,151.112 243.669,150.960 242.454 C 150.866 241.706,150.629 240.584,150.432 239.962 C 150.236 239.340,149.571 236.880,148.954 234.496 C 147.131 227.443,145.116 219.841,144.108 216.211 C 143.590 214.345,142.806 211.491,142.365 209.870 L 141.565 206.922 136.910 206.854 C 134.350 206.817,132.185 206.901,132.098 207.041 M238.176 206.864 C 238.645 206.954,239.323 206.951,239.684 206.857 C 240.044 206.762,239.661 206.688,238.831 206.693 C 238.002 206.697,237.707 206.774,238.176 206.864 M301.258 207.163 C 301.104 207.370,300.599 208.982,300.136 210.745 C 299.673 212.507,297.417 221.074,295.123 229.783 C 292.829 238.492,290.608 247.059,290.187 248.822 L 289.421 252.026 290.487 256.279 C 291.741 261.287,291.780 261.275,293.232 255.419 C 293.850 252.931,296.174 244.025,298.398 235.627 C 300.621 227.229,302.831 218.831,303.309 216.965 C 303.786 215.099,304.531 212.303,304.963 210.752 C 306.088 206.717,306.111 206.786,303.644 206.786 C 302.486 206.786,301.412 206.956,301.258 207.163 M306.570 206.889 C 306.400 206.946,306.744 208.812,307.335 211.036 C 307.926 213.260,310.352 222.460,312.726 231.480 C 315.100 240.500,317.156 248.303,317.294 248.822 C 317.432 249.340,317.689 249.950,317.865 250.176 C 318.040 250.402,318.084 250.687,317.963 250.809 C 317.841 250.930,318.173 252.527,318.700 254.356 C 319.561 257.342,322.872 269.820,325.186 278.794 C 330.718 300.251,330.797 300.480,332.683 300.465 C 334.608 300.451,335.403 298.796,334.637 296.399 C 334.119 294.779,333.301 291.702,330.255 279.925 C 329.665 277.644,328.844 274.505,328.431 272.950 C 326.251 264.743,321.405 246.308,320.651 243.355 C 319.876 240.318,312.236 211.388,311.343 208.106 C 310.999 206.844,308.567 206.224,306.570 206.889 M286.367 263.026 C 286.064 264.313,283.651 273.501,281.391 281.975 C 280.482 285.384,279.525 288.308,279.266 288.473 C 278.895 288.709,278.900 288.774,279.290 288.778 C 279.791 288.784,279.693 289.585,278.990 291.235 C 277.426 294.907,277.111 299.568,278.389 300.150 C 281.178 301.421,281.313 301.108,286.141 282.187 C 286.511 280.735,287.347 277.567,287.998 275.146 L 289.181 270.744 288.176 266.663 C 287.057 262.117,286.734 261.468,286.367 263.026 M116.192 267.213 C 115.737 269.020,114.954 272.026,114.453 273.893 C 107.335 300.410,107.326 300.471,110.577 300.471 C 112.277 300.471,112.497 299.865,116.693 283.625 C 117.185 281.720,118.030 278.539,118.570 276.557 L 119.552 272.952 118.370 268.523 C 117.720 266.087,117.151 264.056,117.104 264.010 C 117.058 263.963,116.648 265.405,116.192 267.213 M49.987 270.274 C 49.385 270.939,49.797 271.912,50.418 271.291 C 50.542 271.167,50.420 271.065,50.146 271.065 C 49.794 271.065,49.848 270.843,50.330 270.311 C 50.705 269.896,50.927 269.557,50.824 269.557 C 50.720 269.557,50.343 269.879,49.987 270.274 M30.549 278.888 C 30.556 279.251,30.900 282.262,31.315 285.580 C 31.729 288.897,32.077 291.951,32.089 292.366 C 32.358 301.798,32.092 301.602,44.625 301.602 C 55.573 301.602,55.816 301.550,56.321 299.074 C 56.543 297.985,58.435 279.854,58.435 278.814 C 58.435 278.295,56.853 278.228,44.486 278.228 C 31.448 278.228,30.538 278.271,30.549 278.888 M261.748 286.334 C 261.751 287.370,261.824 287.750,261.910 287.177 C 261.997 286.604,261.995 285.755,261.905 285.292 C 261.816 284.828,261.745 285.297,261.748 286.334 M270.971 291.702 C 272.267 291.776,274.387 291.776,275.683 291.702 C 276.979 291.629,275.919 291.568,273.327 291.568 C 270.735 291.568,269.675 291.629,270.971 291.702 M243.262 297.267 C 243.266 298.096,243.343 298.391,243.433 297.922 C 243.524 297.453,243.520 296.775,243.426 296.414 C 243.331 296.054,243.258 296.437,243.262 297.267 M253.440 301.879 C 254.425 301.957,256.037 301.957,257.022 301.879 C 258.007 301.802,257.201 301.738,255.231 301.738 C 253.261 301.738,252.455 301.802,253.440 301.879 " stroke="none" fill="#9a96ac" fill-rule="evenodd"></path><path id="path4" d="M101.217 52.780 C 101.217 69.680,101.263 76.593,101.319 68.143 C 101.376 59.694,101.376 45.867,101.319 37.418 C 101.263 28.968,101.217 35.881,101.217 52.780 M98.853 89.982 C 98.786 93.279,98.682 93.843,98.115 93.991 C 97.497 94.152,97.497 94.166,98.127 94.207 C 99.081 94.269,99.198 93.702,99.057 89.698 L 98.931 86.145 98.853 89.982 M105.350 90.099 C 105.370 93.599,105.449 94.060,106.039 94.114 C 106.481 94.154,106.517 94.115,106.147 93.999 C 105.711 93.862,105.558 92.970,105.458 89.984 L 105.329 86.145 105.350 90.099 M322.903 93.003 C 323.940 93.072,325.170 93.214,325.636 93.320 L 326.484 93.511 326.484 108.229 C 326.484 117.945,326.613 122.868,326.861 122.714 C 327.069 122.586,327.238 122.669,327.238 122.897 C 327.238 123.126,327.026 123.285,326.767 123.252 C 322.535 122.702,295.947 123.377,295.947 124.034 C 295.947 124.761,296.199 124.788,302.909 124.788 C 309.484 124.788,309.892 124.830,310.273 125.542 C 310.603 126.157,311.063 126.296,312.772 126.296 C 314.551 126.296,314.898 126.182,315.065 125.542 C 315.258 124.803,315.579 124.788,330.662 124.788 C 345.676 124.788,346.072 124.807,346.466 125.542 C 347.059 126.651,350.966 126.657,351.255 125.550 C 351.440 124.845,351.838 124.799,358.477 124.702 C 364.427 124.615,365.504 124.513,365.504 124.034 C 365.504 123.547,363.998 123.455,354.612 123.368 C 344.091 123.272,343.742 123.245,344.344 122.579 C 344.930 121.931,344.734 121.381,341.014 113.254 C 335.590 101.406,335.909 101.964,334.609 102.059 C 332.885 102.185,332.493 104.083,333.900 105.490 C 334.176 105.766,334.402 106.133,334.402 106.306 C 334.402 106.479,336.098 110.300,338.172 114.797 C 340.245 119.295,341.942 123.043,341.942 123.127 C 341.942 123.558,333.319 123.245,333.143 122.809 C 332.991 122.432,332.947 122.432,332.923 122.809 C 332.904 123.116,332.271 123.278,331.103 123.274 C 330.118 123.271,329.482 123.144,329.689 122.991 C 329.925 122.818,330.066 118.597,330.066 111.670 L 330.066 100.627 329.212 100.412 C 328.742 100.294,328.021 100.286,327.609 100.394 C 326.903 100.578,326.861 100.394,326.861 97.056 C 326.861 92.902,326.690 92.703,323.210 92.811 L 321.018 92.879 322.903 93.003 M100.943 94.146 C 101.616 94.230,102.719 94.230,103.393 94.146 C 104.067 94.063,103.516 93.994,102.168 93.994 C 100.820 93.994,100.269 94.063,100.943 94.146 M94.345 95.190 C 93.671 95.483,93.120 95.807,93.120 95.910 C 93.120 96.091,95.786 95.079,96.104 94.777 C 96.434 94.464,95.521 94.679,94.345 95.190 M108.231 94.770 C 108.617 95.119,111.593 96.508,111.593 96.340 C 111.593 96.125,108.748 94.628,108.340 94.628 C 108.194 94.628,108.145 94.692,108.231 94.770 M111.970 96.578 C 112.074 96.670,113.176 97.663,114.420 98.785 L 116.682 100.824 114.986 99.017 C 114.053 98.022,112.950 97.029,112.535 96.810 C 112.121 96.590,111.866 96.486,111.970 96.578 M330.631 100.053 C 330.631 100.134,331.213 100.268,331.925 100.351 C 332.636 100.434,333.135 100.368,333.033 100.204 C 332.851 99.909,330.631 99.769,330.631 100.053 M178.612 100.933 C 179.289 101.017,180.307 101.015,180.874 100.929 C 181.440 100.843,180.886 100.774,179.642 100.777 C 178.398 100.779,177.934 100.849,178.612 100.933 M118.078 103.856 C 118.529 104.785,118.963 105.480,119.042 105.401 C 119.212 105.230,117.689 102.168,117.434 102.168 C 117.337 102.168,117.627 102.927,118.078 103.856 M85.750 103.711 C 85.418 104.352,85.214 104.944,85.296 105.026 C 85.378 105.107,85.727 104.583,86.071 103.860 C 86.847 102.234,86.578 102.109,85.750 103.711 M328.746 111.571 C 328.746 116.678,328.602 119.932,328.369 120.075 C 328.122 120.228,327.992 117.377,327.992 111.804 C 327.992 106.385,328.129 103.299,328.369 103.299 C 328.609 103.299,328.746 106.307,328.746 111.571 M119.982 110.273 C 119.986 111.103,120.063 111.398,120.154 110.929 C 120.244 110.460,120.240 109.781,120.146 109.421 C 120.052 109.060,119.978 109.444,119.982 110.273 M322.176 112.562 C 321.316 113.423,321.449 114.503,322.501 115.192 C 324.193 116.301,325.901 114.558,324.788 112.859 C 324.115 111.833,323.029 111.709,322.176 112.562 M254.479 116.490 C 254.037 117.315,253.972 126.642,254.403 127.320 C 254.743 127.855,271.705 128.071,272.222 127.548 C 273.013 126.748,272.800 118.377,271.989 118.378 C 271.564 118.379,271.050 118.213,270.848 118.011 C 270.608 117.771,269.298 118.429,267.096 119.895 C 263.010 122.616,264.014 122.670,259.131 119.464 C 254.409 116.364,254.664 116.558,254.947 116.275 C 255.067 116.155,256.975 117.270,259.187 118.754 C 263.725 121.799,263.242 121.783,267.372 119.019 C 271.782 116.067,271.590 115.943,262.485 115.855 C 255.365 115.786,254.833 115.828,254.479 116.490 M321.395 117.248 C 321.523 117.455,322.466 117.625,323.491 117.625 C 324.515 117.625,325.353 117.455,325.353 117.248 C 325.353 117.041,324.410 116.871,323.258 116.871 C 321.956 116.871,321.250 117.014,321.395 117.248 M321.395 119.510 C 321.523 119.717,322.466 119.887,323.491 119.887 C 324.515 119.887,325.353 119.717,325.353 119.510 C 325.353 119.303,324.410 119.133,323.258 119.133 C 321.956 119.133,321.250 119.276,321.395 119.510 M219.800 126.717 C 216.866 127.887,216.350 129.338,216.358 136.389 C 216.368 145.865,216.421 145.900,230.537 145.900 C 244.680 145.900,244.779 145.828,244.594 135.721 C 244.421 126.316,244.375 126.286,230.480 126.320 C 224.998 126.333,220.326 126.507,219.800 126.717 M226.202 136.205 L 226.202 142.923 224.222 142.810 L 222.243 142.696 222.140 136.222 C 222.025 129.004,221.834 129.489,224.788 129.487 L 226.202 129.486 226.202 136.205 M238.643 138.757 L 238.643 142.923 236.664 142.810 L 234.684 142.696 234.577 138.643 L 234.470 134.590 236.557 134.590 L 238.643 134.590 238.643 138.757 M232.535 140.528 L 232.422 142.696 230.443 142.810 L 228.464 142.923 228.464 140.642 L 228.464 138.360 230.556 138.360 L 232.648 138.360 232.535 140.528 M286.415 139.138 C 286.699 139.502,286.920 141.442,286.994 144.227 L 287.114 148.728 287.195 144.155 C 287.265 140.189,287.189 139.515,286.616 139.066 C 286.036 138.610,286.012 138.619,286.415 139.138 M259.899 144.204 C 259.900 146.692,259.961 147.661,260.034 146.357 C 260.108 145.053,260.108 143.017,260.033 141.833 C 259.959 140.648,259.898 141.715,259.899 144.204 M165.989 143.073 C 165.992 144.109,166.065 144.489,166.152 143.916 C 166.238 143.343,166.236 142.494,166.147 142.031 C 166.057 141.567,165.986 142.036,165.989 143.073 M278.040 141.601 C 279.780 141.884,282.753 141.921,282.752 141.659 C 282.752 141.503,281.522 141.399,280.019 141.427 C 278.516 141.456,277.625 141.534,278.040 141.601 M158.435 142.023 C 159.006 142.109,159.939 142.109,160.509 142.023 C 161.079 141.937,160.613 141.866,159.472 141.866 C 158.332 141.866,157.865 141.937,158.435 142.023 M177.101 142.020 C 177.570 142.110,178.249 142.106,178.609 142.012 C 178.970 141.918,178.586 141.844,177.757 141.848 C 176.927 141.852,176.633 141.930,177.101 142.020 M153.534 142.400 C 154.105 142.486,155.038 142.486,155.608 142.400 C 156.178 142.314,155.712 142.243,154.571 142.243 C 153.431 142.243,152.964 142.314,153.534 142.400 M181.056 142.400 C 181.626 142.486,182.559 142.486,183.129 142.400 C 183.699 142.314,183.233 142.243,182.092 142.243 C 180.952 142.243,180.485 142.314,181.056 142.400 M150.334 142.774 C 150.803 142.864,151.482 142.860,151.842 142.766 C 152.203 142.672,151.819 142.598,150.990 142.602 C 150.160 142.606,149.865 142.684,150.334 142.774 M185.208 142.778 C 185.781 142.864,186.629 142.862,187.093 142.772 C 187.557 142.683,187.088 142.612,186.051 142.615 C 185.014 142.618,184.635 142.691,185.208 142.778 M188.784 143.150 C 189.251 143.240,190.014 143.240,190.481 143.150 C 190.947 143.060,190.566 142.987,189.632 142.987 C 188.699 142.987,188.318 143.060,188.784 143.150 M264.858 144.990 C 264.506 145.527,264.284 146.030,264.363 146.110 C 264.442 146.189,264.805 145.750,265.168 145.134 C 265.981 143.759,265.738 143.646,264.858 144.990 M268.992 145.146 C 269.313 145.768,269.661 146.277,269.765 146.277 C 269.869 146.277,269.690 145.768,269.369 145.146 C 269.047 144.524,268.699 144.015,268.595 144.015 C 268.491 144.015,268.670 144.524,268.992 145.146 M140.528 144.985 C 139.066 145.778,139.232 146.051,140.716 145.296 C 142.137 144.574,142.389 144.386,141.910 144.407 C 141.720 144.415,141.098 144.675,140.528 144.985 M175.499 145.227 C 174.633 145.729,169.792 145.848,167.578 145.421 C 166.278 145.171,166.174 145.197,166.824 145.609 C 168.065 146.396,175.111 146.257,175.939 145.429 C 176.699 144.669,176.566 144.608,175.499 145.227 M265.948 149.570 L 271.011 149.691 271.642 151.590 C 271.989 152.634,272.346 153.416,272.435 153.327 C 272.524 153.238,272.290 152.336,271.914 151.323 L 271.231 149.482 266.058 149.465 L 260.885 149.448 265.948 149.570 M275.840 149.544 C 275.702 149.683,275.592 149.980,275.595 150.204 C 275.598 150.455,275.713 150.435,275.893 150.153 C 276.092 149.839,277.791 149.656,281.259 149.575 L 286.334 149.458 281.213 149.375 C 278.396 149.330,275.979 149.406,275.840 149.544 M274.313 154.049 C 273.979 155.029,273.772 155.895,273.851 155.975 C 273.931 156.055,274.269 155.319,274.603 154.339 C 274.937 153.360,275.145 152.493,275.065 152.413 C 274.985 152.334,274.647 153.070,274.313 154.049 M134.805 155.164 C 134.667 155.716,134.626 156.241,134.715 156.330 C 134.804 156.419,134.990 156.039,135.129 155.487 C 135.267 154.934,135.308 154.409,135.219 154.321 C 135.130 154.232,134.944 154.611,134.805 155.164 M301.705 162.111 C 301.705 163.044,301.778 163.426,301.868 162.959 C 301.958 162.493,301.958 161.730,301.868 161.263 C 301.778 160.796,301.705 161.178,301.705 162.111 M286.189 162.595 C 285.446 163.338,285.614 184.968,286.364 185.257 C 287.588 185.726,301.113 185.510,301.520 185.014 C 302.043 184.376,302.069 183.843,302.021 174.666 L 301.979 166.675 300.000 166.561 L 298.021 166.447 297.832 164.420 L 297.644 162.394 292.127 162.284 C 288.430 162.210,286.471 162.313,286.189 162.595 M303.587 163.890 C 304.160 163.976,305.008 163.974,305.472 163.885 C 305.935 163.795,305.467 163.724,304.430 163.727 C 303.393 163.730,303.014 163.803,303.587 163.890 M291.708 164.844 C 291.461 165.592,287.653 165.699,287.653 164.958 C 287.653 164.499,288.107 164.373,289.758 164.373 C 291.274 164.373,291.820 164.505,291.708 164.844 M132.800 167.201 C 132.804 168.030,132.881 168.325,132.972 167.856 C 133.062 167.387,133.058 166.709,132.964 166.348 C 132.870 165.988,132.796 166.371,132.800 167.201 M291.800 167.012 C 291.800 167.220,290.867 167.389,289.727 167.389 C 288.586 167.389,287.653 167.220,287.653 167.012 C 287.653 166.805,288.586 166.635,289.727 166.635 C 290.867 166.635,291.800 166.805,291.800 167.012 M132.431 170.405 C 132.431 171.338,132.504 171.720,132.594 171.254 C 132.684 170.787,132.684 170.024,132.594 169.557 C 132.504 169.090,132.431 169.472,132.431 170.405 M300.377 170.688 C 300.499 171.053,299.083 171.159,294.116 171.159 C 288.260 171.159,286.842 170.965,287.547 170.261 C 288.033 169.774,300.208 170.180,300.377 170.688 M300.471 172.667 C 300.471 172.904,298.021 173.044,293.874 173.044 C 289.727 173.044,287.276 172.904,287.276 172.667 C 287.276 172.430,289.727 172.290,293.874 172.290 C 298.021 172.290,300.471 172.430,300.471 172.667 M132.054 174.175 C 132.054 175.108,132.127 175.490,132.217 175.024 C 132.307 174.557,132.307 173.794,132.217 173.327 C 132.127 172.861,132.054 173.242,132.054 174.175 M207.077 175.683 C 207.077 176.616,207.151 176.998,207.241 176.532 C 207.330 176.065,207.330 175.302,207.241 174.835 C 207.151 174.369,207.077 174.750,207.077 175.683 M300.377 174.835 C 300.499 175.200,299.041 175.306,293.905 175.306 C 287.831 175.306,286.793 175.161,287.536 174.418 C 288.030 173.925,300.206 174.320,300.377 174.835 M207.459 179.265 C 207.462 180.302,207.535 180.681,207.622 180.108 C 207.709 179.535,207.706 178.687,207.617 178.223 C 207.527 177.759,207.457 178.228,207.459 179.265 M131.669 180.019 C 131.673 180.848,131.750 181.143,131.841 180.674 C 131.931 180.205,131.927 179.527,131.833 179.166 C 131.739 178.806,131.665 179.189,131.669 180.019 M207.836 183.035 C 207.839 184.072,207.912 184.451,207.999 183.878 C 208.086 183.305,208.083 182.457,207.994 181.993 C 207.904 181.529,207.834 181.998,207.836 183.035 M137.347 185.768 C 140.626 185.830,145.885 185.830,149.034 185.767 C 152.183 185.704,149.500 185.653,143.073 185.653 C 136.645 185.653,134.068 185.705,137.347 185.768 M208.149 187.061 C 208.118 187.792,207.870 188.117,207.257 188.235 L 206.409 188.399 207.269 188.450 C 208.203 188.506,208.649 187.810,208.370 186.733 C 208.251 186.275,208.179 186.384,208.149 187.061 M196.701 188.397 C 197.375 188.481,198.478 188.481,199.152 188.397 C 199.826 188.314,199.274 188.245,197.926 188.245 C 196.579 188.245,196.027 188.314,196.701 188.397 M192.460 188.680 C 192.253 188.745,189.834 189.183,187.086 189.653 C 184.337 190.124,182.158 190.578,182.243 190.662 C 182.412 190.832,194.625 188.884,194.879 188.648 C 195.062 188.477,193.017 188.504,192.460 188.680 M202.583 188.967 C 203.138 189.322,204.686 189.289,205.655 188.901 C 206.152 188.702,205.683 188.614,204.280 188.644 C 203.108 188.669,202.345 188.815,202.583 188.967 M175.306 191.938 C 171.453 192.814,170.765 193.075,173.044 192.796 C 175.392 192.508,180.610 191.220,179.453 191.214 C 178.935 191.211,177.069 191.537,175.306 191.938 M153.228 192.799 C 152.608 195.268,154.334 197.214,156.532 196.525 L 157.776 196.135 156.134 196.170 C 154.050 196.214,153.352 195.407,153.683 193.338 C 153.935 191.757,153.591 191.349,153.228 192.799 M164.570 194.263 C 162.500 194.691,161.010 195.109,161.259 195.192 C 161.813 195.377,167.740 194.201,168.520 193.751 C 169.279 193.314,168.946 193.357,164.570 194.263 M194.533 197.149 C 193.949 197.321,194.809 197.429,196.795 197.434 C 198.812 197.438,199.651 197.335,199.057 197.156 C 197.859 196.793,195.750 196.790,194.533 197.149 M212.630 197.172 C 210.990 197.427,211.015 197.438,213.384 197.487 C 215.088 197.522,215.662 197.427,215.269 197.172 C 214.958 196.971,214.618 196.830,214.515 196.858 C 214.411 196.886,213.563 197.027,212.630 197.172 M188.996 199.096 C 188.296 199.299,176.057 199.403,159.684 199.345 C 144.223 199.291,131.574 199.373,131.574 199.529 C 131.574 199.684,121.492 199.811,109.169 199.811 C 83.666 199.811,85.580 199.547,85.580 203.068 C 85.580 206.628,85.526 206.598,91.813 206.598 C 96.630 206.598,97.267 206.670,97.267 207.220 C 97.267 207.747,94.771 217.517,91.938 228.087 C 89.643 236.646,75.010 292.512,74.262 295.570 C 73.387 299.146,73.742 300.223,75.852 300.398 C 77.809 300.561,77.997 300.151,80.649 289.915 C 81.911 285.042,83.289 279.783,83.710 278.228 C 84.457 275.475,90.631 252.029,92.000 246.748 C 92.377 245.297,93.983 239.189,95.570 233.176 C 97.156 227.163,98.938 220.377,99.528 218.096 C 101.061 212.172,102.124 208.401,102.313 208.212 C 102.508 208.016,102.624 208.383,103.822 213.007 C 104.333 214.976,106.646 223.798,108.963 232.611 C 111.280 241.423,114.090 252.111,115.207 256.362 C 116.324 260.613,117.755 265.957,118.388 268.238 C 119.080 270.732,119.457 272.835,119.336 273.516 C 119.212 274.208,119.258 274.454,119.455 274.149 C 119.664 273.824,120.138 275.067,120.821 277.731 C 121.397 279.974,122.173 282.912,122.547 284.260 C 122.920 285.608,123.943 289.510,124.819 292.931 C 126.570 299.768,126.940 300.471,128.796 300.471 C 132.004 300.471,132.308 302.354,124.021 270.904 C 122.987 266.979,122.238 263.417,122.358 262.987 C 122.505 262.460,122.465 262.364,122.237 262.691 C 121.803 263.313,119.311 253.987,119.721 253.277 C 119.879 253.004,119.868 252.907,119.697 253.063 C 119.525 253.218,119.002 251.861,118.533 250.047 C 118.064 248.233,117.342 245.476,116.930 243.921 C 116.189 241.132,111.349 222.802,108.595 212.354 C 107.817 209.403,107.268 206.901,107.376 206.793 C 108.003 206.166,131.523 206.615,131.691 207.257 C 131.843 207.839,131.869 207.833,131.907 207.200 C 131.949 206.510,132.262 206.492,139.962 206.729 C 144.369 206.864,152.809 206.938,158.718 206.892 C 175.052 206.767,239.100 206.464,243.167 206.493 C 245.137 206.507,251.456 206.528,257.210 206.540 C 264.627 206.555,267.672 206.683,267.672 206.981 C 267.672 207.424,262.297 228.229,261.683 230.160 C 261.189 231.714,260.729 234.545,260.841 235.344 C 260.892 235.707,260.735 236.004,260.492 236.004 C 260.209 236.004,260.135 236.343,260.287 236.946 C 260.434 237.534,260.363 237.889,260.099 237.889 C 259.865 237.889,259.772 238.143,259.891 238.454 C 260.011 238.765,259.976 239.020,259.814 239.020 C 259.534 239.020,258.597 242.146,258.402 243.732 C 258.351 244.147,258.276 244.571,258.234 244.675 C 258.192 244.779,258.184 245.008,258.216 245.186 C 258.247 245.363,258.079 245.743,257.841 246.029 C 257.603 246.316,257.507 246.807,257.627 247.121 C 257.748 247.434,257.720 247.691,257.565 247.691 C 257.171 247.691,255.788 252.973,255.912 254.006 C 255.968 254.472,255.827 254.854,255.600 254.854 C 255.372 254.854,255.296 255.031,255.430 255.247 C 255.563 255.464,255.470 255.886,255.221 256.185 C 254.973 256.484,254.868 256.986,254.988 257.300 C 255.109 257.613,255.080 257.870,254.925 257.870 C 254.770 257.870,254.241 259.306,253.749 261.061 C 253.256 262.816,252.752 264.191,252.628 264.116 C 252.505 264.040,252.362 264.682,252.311 265.542 C 252.260 266.402,252.048 267.162,251.840 267.232 C 251.631 267.301,251.461 267.760,251.461 268.251 C 251.461 268.742,251.223 270.042,250.933 271.141 C 246.926 286.294,245.031 293.762,245.095 294.153 C 245.138 294.414,244.976 295.105,244.735 295.689 C 244.024 297.414,244.277 300.385,245.091 299.881 C 245.277 299.767,245.429 299.852,245.429 300.072 C 245.429 300.292,245.768 300.471,246.183 300.471 C 246.598 300.471,246.937 300.302,246.937 300.094 C 246.937 299.887,247.135 299.760,247.377 299.811 C 248.016 299.948,248.863 298.165,248.630 297.172 C 248.519 296.700,248.608 296.324,248.831 296.324 C 249.052 296.324,249.197 296.112,249.155 295.853 C 249.113 295.594,249.294 294.873,249.557 294.251 C 250.040 293.113,251.730 287.016,254.474 276.517 C 255.289 273.399,255.858 270.472,255.738 270.014 C 255.604 269.503,255.691 269.180,255.963 269.180 C 256.207 269.180,256.306 269.017,256.183 268.818 C 256.060 268.619,256.126 268.153,256.330 267.782 C 256.988 266.585,258.594 260.494,258.392 259.966 C 258.284 259.684,258.369 259.347,258.582 259.216 C 258.794 259.084,258.872 258.728,258.756 258.423 C 258.639 258.119,258.731 257.870,258.961 257.870 C 259.190 257.870,259.378 257.618,259.378 257.310 C 259.378 257.002,259.797 255.305,260.308 253.540 C 260.820 251.774,261.141 250.075,261.022 249.764 C 260.903 249.453,261.011 249.199,261.263 249.199 C 261.515 249.199,261.631 248.965,261.521 248.679 C 261.412 248.394,261.458 248.012,261.624 247.831 C 261.789 247.650,262.313 246.010,262.787 244.187 C 263.260 242.363,263.766 241.062,263.911 241.296 C 264.056 241.530,264.167 241.241,264.159 240.654 C 264.151 240.066,264.667 237.634,265.306 235.250 C 265.944 232.865,267.776 225.910,269.376 219.793 C 272.681 207.160,272.670 207.187,273.443 210.425 C 273.918 212.414,277.661 226.705,280.489 237.323 C 280.875 238.775,281.785 242.253,282.511 245.052 C 283.237 247.851,284.452 252.501,285.212 255.384 C 286.109 258.790,286.515 261.035,286.370 261.793 C 286.215 262.599,286.256 262.788,286.502 262.405 C 286.698 262.100,286.927 261.930,287.010 262.028 C 287.533 262.637,289.162 270.600,288.967 271.594 C 288.801 272.442,288.842 272.610,289.118 272.207 C 289.588 271.519,289.428 271.063,291.431 278.794 C 292.290 282.111,293.392 286.268,293.879 288.030 C 294.367 289.793,295.214 293.016,295.762 295.193 C 296.853 299.521,297.429 300.471,298.963 300.471 C 301.732 300.471,301.749 299.315,299.119 289.350 C 293.630 268.553,291.891 261.543,292.032 260.776 C 292.120 260.300,292.078 260.181,291.934 260.497 C 291.614 261.202,289.154 251.935,289.445 251.118 C 289.562 250.788,289.520 250.644,289.350 250.798 C 289.180 250.952,288.550 249.171,287.948 246.840 C 285.955 239.109,285.120 235.921,281.805 223.374 C 277.837 208.354,277.521 207.053,277.782 206.792 C 278.237 206.337,310.974 206.628,311.161 207.089 C 311.298 207.425,311.352 207.420,311.375 207.069 C 311.397 206.716,312.723 206.598,316.661 206.598 C 321.666 206.598,321.946 206.557,322.505 205.760 C 323.311 204.608,323.269 201.618,322.432 200.601 L 321.772 199.799 256.485 199.804 C 194.052 199.809,189.280 199.752,190.449 199.011 C 191.076 198.614,190.559 198.644,188.996 199.096 M62.989 204.959 C 63.388 205.741,63.713 206.627,63.713 206.929 C 63.713 207.230,63.815 207.375,63.940 207.251 C 64.262 206.929,63.397 204.478,62.781 203.967 C 62.461 203.701,62.539 204.077,62.989 204.959 M55.366 206.692 C 54.756 207.561,54.700 207.762,55.172 207.383 C 55.844 206.843,56.727 205.467,56.401 205.467 C 56.304 205.467,55.838 206.018,55.366 206.692 M311.457 208.106 C 311.457 208.417,311.603 209.010,311.781 209.425 C 311.986 209.900,312.105 209.970,312.105 209.614 C 312.105 209.303,311.960 208.709,311.781 208.294 C 311.577 207.819,311.457 207.749,311.457 208.106 M53.622 209.142 C 52.646 210.552,52.329 211.122,52.520 211.122 C 52.608 211.122,53.129 210.443,53.678 209.614 C 54.794 207.928,54.745 207.520,53.622 209.142 M306.739 209.991 C 306.870 210.716,307.127 211.649,307.308 212.064 C 307.535 212.582,307.563 212.404,307.399 211.499 C 307.267 210.773,307.011 209.840,306.830 209.425 C 306.603 208.907,306.575 209.085,306.739 209.991 M48.497 210.933 C 49.369 212.422,49.387 212.444,49.387 211.980 C 49.387 211.761,49.038 211.182,48.611 210.692 L 47.835 209.802 48.497 210.933 M299.340 212.253 C 299.106 213.124,298.987 213.911,299.078 214.001 C 299.168 214.091,299.425 213.443,299.649 212.561 C 299.873 211.679,299.991 210.892,299.911 210.813 C 299.832 210.733,299.575 211.381,299.340 212.253 M64.575 212.818 C 64.578 213.855,64.651 214.234,64.738 213.661 C 64.825 213.088,64.822 212.240,64.733 211.776 C 64.643 211.312,64.572 211.781,64.575 212.818 M130.281 212.091 C 130.143 212.644,130.102 213.168,130.191 213.257 C 130.280 213.346,130.466 212.967,130.605 212.414 C 130.743 211.862,130.784 211.337,130.695 211.248 C 130.606 211.159,130.420 211.539,130.281 212.091 M134.967 214.138 C 134.732 215.009,134.614 215.796,134.704 215.886 C 134.795 215.976,135.052 215.328,135.275 214.446 C 135.499 213.564,135.618 212.777,135.538 212.698 C 135.459 212.618,135.202 213.266,134.967 214.138 M50.806 213.748 C 50.457 214.155,50.309 214.574,50.478 214.678 C 50.647 214.783,50.976 214.449,51.209 213.937 C 51.721 212.813,51.639 212.774,50.806 213.748 M303.703 215.484 C 303.564 216.037,303.523 216.561,303.612 216.650 C 303.701 216.739,303.887 216.360,304.026 215.807 C 304.165 215.255,304.205 214.730,304.116 214.641 C 304.028 214.552,303.841 214.932,303.703 215.484 M313.529 216.211 C 313.925 218.005,314.465 219.082,314.190 217.531 C 314.062 216.805,313.804 215.957,313.618 215.646 C 313.396 215.276,313.365 215.472,313.529 216.211 M64.178 218.662 C 64.178 219.387,64.256 219.684,64.350 219.321 C 64.445 218.959,64.445 218.365,64.350 218.002 C 64.256 217.639,64.178 217.936,64.178 218.662 M308.818 217.908 C 308.818 218.219,308.964 218.812,309.142 219.227 C 309.347 219.702,309.466 219.772,309.466 219.416 C 309.466 219.105,309.321 218.511,309.142 218.096 C 308.938 217.621,308.818 217.551,308.818 217.908 M127.835 221.521 C 127.592 222.487,127.464 223.348,127.550 223.434 C 127.636 223.521,127.906 222.801,128.150 221.835 C 128.393 220.869,128.521 220.007,128.435 219.921 C 128.348 219.834,128.079 220.554,127.835 221.521 M140.117 220.735 C 140.244 221.357,140.471 222.969,140.620 224.317 L 140.892 226.767 140.917 224.694 C 140.930 223.553,140.703 221.942,140.413 221.112 C 140.070 220.132,139.966 220.000,140.117 220.735 M296.917 221.516 C 296.778 222.069,296.737 222.593,296.826 222.682 C 296.915 222.771,297.101 222.392,297.240 221.839 C 297.378 221.287,297.419 220.762,297.330 220.673 C 297.241 220.584,297.055 220.964,296.917 221.516 M132.920 221.893 C 132.782 222.446,132.741 222.970,132.830 223.059 C 132.919 223.148,133.105 222.769,133.244 222.216 C 133.382 221.664,133.423 221.139,133.334 221.050 C 133.245 220.961,133.059 221.341,132.920 221.893 M301.818 222.647 C 301.679 223.200,301.638 223.724,301.727 223.813 C 301.816 223.902,302.002 223.523,302.141 222.970 C 302.280 222.418,302.320 221.893,302.231 221.804 C 302.143 221.715,301.956 222.095,301.818 222.647 M63.148 224.694 C 63.003 225.551,62.969 226.337,63.073 226.441 C 63.177 226.545,63.380 225.928,63.525 225.071 C 63.670 224.213,63.704 223.427,63.600 223.323 C 63.496 223.220,63.293 223.836,63.148 224.694 M315.981 225.448 C 315.981 225.759,316.127 226.352,316.305 226.767 C 316.510 227.242,316.629 227.312,316.629 226.956 C 316.629 226.645,316.484 226.051,316.305 225.636 C 316.101 225.161,315.981 225.091,315.981 225.448 M125.757 229.433 C 125.619 229.986,125.578 230.510,125.667 230.599 C 125.756 230.688,125.942 230.309,126.081 229.756 C 126.219 229.204,126.260 228.679,126.171 228.590 C 126.082 228.501,125.896 228.881,125.757 229.433 M61.290 231.695 C 61.151 232.248,61.110 232.772,61.199 232.861 C 61.288 232.950,61.474 232.571,61.613 232.018 C 61.752 231.466,61.792 230.941,61.704 230.852 C 61.615 230.763,61.429 231.143,61.290 231.695 M33.641 232.234 C 33.641 232.959,33.718 233.256,33.813 232.893 C 33.908 232.531,33.908 231.937,33.813 231.574 C 33.718 231.211,33.641 231.508,33.641 232.234 M142.157 232.799 C 142.157 233.007,142.399 233.600,142.696 234.119 C 142.992 234.637,143.234 234.892,143.234 234.684 C 143.234 234.477,142.992 233.883,142.696 233.365 C 142.399 232.846,142.157 232.592,142.157 232.799 M33.284 235.438 C 33.287 236.475,33.360 236.854,33.447 236.281 C 33.533 235.708,33.531 234.860,33.442 234.396 C 33.352 233.933,33.281 234.402,33.284 235.438 M314.096 237.889 C 314.096 238.200,314.242 238.794,314.420 239.208 C 314.625 239.684,314.744 239.753,314.744 239.397 C 314.744 239.086,314.599 238.492,314.420 238.077 C 314.216 237.602,314.096 237.532,314.096 237.889 M32.954 244.486 C 32.953 248.011,33.010 249.504,33.079 247.804 C 33.149 246.103,33.149 243.219,33.080 241.395 C 33.011 239.570,32.954 240.961,32.954 244.486 M211.499 239.020 C 210.752 239.259,210.713 239.322,211.310 239.322 C 211.725 239.322,212.488 239.186,213.007 239.020 C 213.753 238.781,213.792 238.718,213.195 238.718 C 212.780 238.718,212.017 238.854,211.499 239.020 M127.642 241.874 C 127.504 242.427,127.463 242.952,127.552 243.040 C 127.641 243.129,127.827 242.750,127.966 242.197 C 128.104 241.645,128.145 241.120,128.056 241.031 C 127.967 240.942,127.781 241.322,127.642 241.874 M195.553 242.075 C 195.851 242.373,196.166 242.376,196.665 242.086 C 197.275 241.732,197.224 241.680,196.249 241.670 C 195.438 241.662,195.249 241.771,195.553 242.075 M296.356 243.387 C 296.112 244.353,295.984 245.214,296.070 245.301 C 296.157 245.387,296.427 244.667,296.670 243.701 C 296.913 242.735,297.041 241.873,296.955 241.787 C 296.869 241.701,296.599 242.420,296.356 243.387 M321.065 244.675 C 321.197 245.401,321.453 246.334,321.634 246.748 C 321.861 247.266,321.889 247.089,321.725 246.183 C 321.593 245.457,321.337 244.524,321.156 244.109 C 320.929 243.592,320.901 243.769,321.065 244.675 M55.939 249.199 C 55.939 251.583,56.000 252.559,56.075 251.367 C 56.150 250.174,56.150 248.223,56.075 247.031 C 56.000 245.839,55.939 246.814,55.939 249.199 M120.479 249.414 C 120.341 249.967,120.300 250.492,120.389 250.580 C 120.478 250.669,120.664 250.290,120.802 249.737 C 120.941 249.185,120.982 248.660,120.893 248.571 C 120.804 248.482,120.618 248.862,120.479 249.414 M125.024 251.885 C 124.709 253.456,125.014 253.761,125.353 252.215 C 125.497 251.563,125.535 250.951,125.439 250.855 C 125.343 250.759,125.156 251.223,125.024 251.885 M33.264 253.723 C 33.264 254.449,33.341 254.746,33.436 254.383 C 33.531 254.020,33.531 253.426,33.436 253.063 C 33.341 252.700,33.264 252.997,33.264 253.723 M55.514 255.042 C 55.519 255.872,55.596 256.167,55.686 255.698 C 55.776 255.229,55.773 254.550,55.678 254.190 C 55.584 253.829,55.510 254.213,55.514 255.042 M224.317 255.375 C 224.317 255.780,225.438 257.870,225.656 257.870 C 225.759 257.870,225.564 257.319,225.221 256.645 C 224.521 255.269,224.317 254.982,224.317 255.375 M154.624 256.362 C 154.624 256.673,154.770 257.267,154.948 257.681 C 155.152 258.157,155.272 258.226,155.272 257.870 C 155.272 257.559,155.126 256.965,154.948 256.550 C 154.744 256.075,154.624 256.005,154.624 256.362 M226.579 259.896 C 226.579 260.303,228.076 263.148,228.291 263.148 C 228.394 263.148,228.115 262.427,227.671 261.546 C 226.797 259.813,226.579 259.483,226.579 259.896 M325.783 262.771 C 325.783 263.082,325.929 263.676,326.107 264.090 C 326.312 264.566,326.431 264.635,326.431 264.279 C 326.431 263.968,326.286 263.374,326.107 262.959 C 325.903 262.484,325.783 262.415,325.783 262.771 M156.886 265.033 C 156.886 265.344,157.032 265.938,157.210 266.352 C 157.414 266.828,157.534 266.897,157.534 266.541 C 157.534 266.230,157.388 265.636,157.210 265.221 C 157.006 264.746,156.886 264.677,156.886 265.033 M321.442 265.787 C 321.574 266.513,321.830 267.446,322.011 267.861 C 322.238 268.378,322.266 268.201,322.102 267.295 C 321.970 266.569,321.714 265.636,321.533 265.221 C 321.306 264.704,321.278 264.881,321.442 265.787 M38.797 270.021 L 39.703 271.050 32.817 271.046 C 24.648 271.040,24.882 270.935,24.882 274.617 C 24.882 277.908,25.154 278.228,27.950 278.228 C 30.107 278.228,30.113 278.231,30.265 279.453 L 30.417 280.679 30.477 279.453 L 30.537 278.228 44.464 278.228 L 58.390 278.228 58.538 279.642 L 58.686 281.056 58.749 279.642 L 58.812 278.228 61.048 278.228 C 64.007 278.228,64.467 277.750,64.467 274.678 C 64.467 271.004,65.074 271.172,51.708 271.153 L 40.267 271.137 39.079 270.064 L 37.892 268.992 38.797 270.021 M323.898 275.212 C 323.898 275.523,324.044 276.117,324.222 276.532 C 324.427 277.007,324.546 277.077,324.546 276.720 C 324.546 276.409,324.401 275.815,324.222 275.401 C 324.018 274.925,323.898 274.856,323.898 275.212 M234.949 277.277 C 235.400 278.206,235.834 278.901,235.913 278.822 C 236.083 278.651,234.560 275.589,234.304 275.589 C 234.208 275.589,234.498 276.349,234.949 277.277 M112.939 278.067 C 112.801 278.619,112.760 279.144,112.849 279.233 C 112.938 279.322,113.124 278.942,113.262 278.390 C 113.401 277.837,113.442 277.312,113.353 277.224 C 113.264 277.135,113.078 277.514,112.939 278.067 M155.001 277.474 C 155.001 277.785,155.147 278.379,155.325 278.794 C 155.529 279.269,155.649 279.339,155.649 278.982 C 155.649 278.671,155.503 278.077,155.325 277.663 C 155.121 277.187,155.001 277.118,155.001 277.474 M281.810 278.982 C 281.666 279.634,281.628 280.246,281.724 280.342 C 281.820 280.438,282.007 279.974,282.139 279.312 C 282.272 278.650,282.310 278.038,282.225 277.952 C 282.140 277.867,281.953 278.330,281.810 278.982 M117.840 279.198 C 117.702 279.750,117.661 280.275,117.750 280.364 C 117.839 280.453,118.025 280.073,118.163 279.521 C 118.302 278.968,118.343 278.443,118.254 278.355 C 118.165 278.266,117.979 278.645,117.840 279.198 M57.893 284.661 C 57.748 286.139,57.707 287.427,57.803 287.523 C 57.899 287.619,58.099 286.490,58.247 285.014 C 58.395 283.538,58.436 282.250,58.337 282.151 C 58.239 282.053,58.039 283.182,57.893 284.661 M331.061 282.752 C 331.061 283.063,331.207 283.657,331.385 284.072 C 331.590 284.547,331.709 284.617,331.709 284.260 C 331.709 283.949,331.564 283.355,331.385 282.941 C 331.181 282.465,331.061 282.396,331.061 282.752 M272.385 283.129 L 271.254 283.417 272.268 283.462 C 272.826 283.486,273.387 283.336,273.516 283.129 C 273.644 282.922,273.696 282.772,273.632 282.797 C 273.568 282.821,273.007 282.971,272.385 283.129 M161.974 284.449 C 162.370 286.242,162.910 287.320,162.635 285.768 C 162.507 285.042,162.249 284.194,162.063 283.883 C 161.841 283.513,161.810 283.709,161.974 284.449 M31.017 286.145 C 31.017 287.078,31.090 287.460,31.180 286.993 C 31.270 286.527,31.270 285.763,31.180 285.297 C 31.090 284.830,31.017 285.212,31.017 286.145 M326.537 285.014 C 326.537 285.325,326.683 285.919,326.861 286.334 C 327.066 286.809,327.185 286.879,327.185 286.522 C 327.185 286.211,327.040 285.617,326.861 285.203 C 326.657 284.727,326.537 284.658,326.537 285.014 M110.677 286.738 C 110.539 287.290,110.498 287.815,110.587 287.904 C 110.676 287.993,110.862 287.613,111.000 287.061 C 111.139 286.508,111.180 285.983,111.091 285.895 C 111.002 285.806,110.816 286.185,110.677 286.738 M253.818 287.088 C 253.822 287.917,253.899 288.212,253.990 287.743 C 254.080 287.274,254.076 286.595,253.982 286.235 C 253.888 285.875,253.814 286.258,253.818 287.088 M31.386 289.350 C 31.390 290.179,31.468 290.474,31.558 290.005 C 31.648 289.536,31.645 288.857,31.550 288.497 C 31.456 288.137,31.382 288.520,31.386 289.350 M254.203 290.669 C 254.203 291.602,254.276 291.984,254.366 291.517 C 254.456 291.051,254.456 290.287,254.366 289.821 C 254.276 289.354,254.203 289.736,254.203 290.669 M283.722 291.262 C 283.583 291.814,283.542 292.339,283.631 292.428 C 283.720 292.517,283.906 292.137,284.045 291.585 C 284.183 291.032,284.224 290.508,284.135 290.419 C 284.046 290.330,283.860 290.709,283.722 291.262 M241.683 291.158 C 241.670 291.323,242.083 292.254,242.601 293.228 C 243.303 294.546,243.544 294.782,243.544 294.153 C 243.544 293.689,243.405 293.308,243.235 293.308 C 243.065 293.308,242.652 292.757,242.317 292.083 C 241.981 291.409,241.696 290.993,241.683 291.158 M333.712 292.743 C 333.705 293.157,333.846 293.836,334.025 294.251 C 334.437 295.211,334.437 294.220,334.025 292.931 C 333.782 292.174,333.720 292.137,333.712 292.743 M164.426 293.685 C 164.426 293.996,164.572 294.590,164.750 295.005 C 164.954 295.480,165.074 295.550,165.074 295.193 C 165.074 294.882,164.928 294.288,164.750 293.874 C 164.546 293.398,164.426 293.329,164.426 293.685 M329.176 295.193 C 329.176 295.504,329.322 296.098,329.500 296.513 C 329.705 296.988,329.824 297.058,329.824 296.701 C 329.824 296.390,329.679 295.796,329.500 295.382 C 329.296 294.906,329.176 294.837,329.176 295.193 M107.879 298.057 C 107.841 298.850,108.094 299.453,108.671 299.942 C 109.513 300.654,109.514 300.654,108.891 299.906 C 108.546 299.491,108.189 298.643,108.099 298.021 L 107.936 296.890 107.879 298.057 M281.702 298.833 C 281.469 299.590,281.429 300.057,281.612 299.869 C 281.981 299.492,282.553 297.455,282.291 297.455 C 282.199 297.455,281.934 298.075,281.702 298.833 M112.754 298.557 C 112.737 298.851,112.433 299.445,112.078 299.876 C 111.469 300.615,111.483 300.614,112.311 299.851 C 112.794 299.406,113.098 298.812,112.987 298.531 C 112.822 298.118,112.778 298.122,112.754 298.557 M334.295 299.949 C 334.167 300.077,333.503 300.314,332.818 300.476 C 331.736 300.733,331.700 300.776,332.539 300.810 C 333.069 300.831,333.833 300.599,334.235 300.295 C 334.638 299.990,334.868 299.736,334.747 299.729 C 334.626 299.723,334.423 299.822,334.295 299.949 M162.056 300.567 C 162.246 300.757,162.803 300.849,163.293 300.772 C 164.048 300.653,163.995 300.600,162.948 300.426 C 162.198 300.302,161.847 300.358,162.056 300.567 M39.491 301.884 C 42.238 301.948,46.734 301.948,49.482 301.884 C 52.229 301.820,49.981 301.767,44.486 301.767 C 38.992 301.767,36.744 301.820,39.491 301.884 M249.109 301.869 C 249.578 301.959,250.257 301.956,250.617 301.861 C 250.977 301.767,250.594 301.693,249.764 301.697 C 248.935 301.702,248.640 301.779,249.109 301.869 " stroke="none" fill="#d3d3d3" fill-rule="evenodd"></path><path id="path5" d="M96.281 112.818 C 97.367 118.360,104.850 119.260,107.384 114.154 C 108.637 111.628,108.561 111.593,101.910 111.593 L 96.041 111.593 96.281 112.818 M270.859 114.098 C 269.776 115.266,269.764 115.358,270.480 117.071 C 271.520 119.560,275.212 118.593,275.212 115.832 C 275.212 113.450,272.471 112.358,270.859 114.098 M272.926 115.834 C 272.904 116.980,272.879 117.002,272.548 116.176 C 272.354 115.691,272.290 115.139,272.406 114.951 C 272.792 114.327,272.950 114.595,272.926 115.834 M183.630 116.724 C 182.782 117.080,180.821 117.248,177.503 117.248 C 170.332 117.248,168.026 118.116,166.591 121.359 C 166.270 122.085,165.740 122.535,165.045 122.674 C 163.110 123.061,162.624 126.306,164.416 126.875 C 165.111 127.095,165.180 127.320,164.968 128.649 C 164.667 130.529,166.866 132.917,170.364 134.510 C 171.754 135.144,172.253 135.526,171.819 135.625 C 171.456 135.708,171.159 135.905,171.159 136.063 C 171.159 136.220,170.921 136.349,170.630 136.349 C 170.340 136.349,169.237 136.904,168.180 137.582 L 166.258 138.816 166.258 141.954 L 166.258 145.093 168.418 145.541 C 170.695 146.014,174.452 145.805,175.701 145.137 C 176.370 144.778,176.437 144.320,176.437 140.103 L 176.437 135.464 178.417 135.011 C 181.921 134.208,185.538 130.831,186.740 127.238 C 187.058 126.289,187.512 125.682,187.967 125.600 C 188.365 125.528,188.838 125.329,189.019 125.158 C 189.200 124.987,188.750 124.981,188.020 125.146 C 187.290 125.311,186.481 125.314,186.223 125.155 C 185.443 124.673,186.134 123.659,187.264 123.627 C 187.841 123.611,188.101 123.512,187.842 123.407 C 187.582 123.303,187.370 122.834,187.370 122.366 C 187.370 118.958,185.397 115.981,183.630 116.724 M183.739 123.048 C 184.522 124.502,184.453 125.469,183.524 126.054 C 182.655 126.601,182.311 126.162,182.888 125.239 C 183.277 124.616,183.248 124.317,182.725 123.519 C 181.970 122.366,181.918 121.772,182.572 121.772 C 182.836 121.772,183.361 122.346,183.739 123.048 M176.365 124.492 C 176.526 125.340,175.052 125.713,173.648 125.180 C 172.748 124.837,172.659 124.687,173.065 124.197 C 173.730 123.396,176.199 123.616,176.365 124.492 M178.417 127.933 C 179.039 128.423,179.327 129.312,178.863 129.312 C 177.924 129.312,176.453 127.986,176.443 127.131 C 176.437 126.619,177.077 126.879,178.417 127.933 M289.693 160.414 C 289.230 162.258,289.538 162.399,293.907 162.348 L 297.959 162.300 299.961 164.399 L 301.964 166.499 302.066 174.578 L 302.168 182.658 303.535 182.772 C 306.075 182.984,306.126 182.789,306.126 172.829 L 306.126 163.996 304.713 163.991 C 301.879 163.981,301.602 163.759,301.602 161.502 L 301.602 159.472 295.766 159.472 L 289.930 159.472 289.693 160.414 M131.660 192.554 L 131.762 199.246 159.800 199.343 C 188.172 199.441,190.573 199.343,190.831 198.076 C 191.034 197.088,193.806 196.948,204.639 197.383 C 209.855 197.592,210.882 197.542,211.425 197.055 C 211.939 196.593,212.395 196.552,213.761 196.848 C 216.926 197.533,216.808 197.592,217.587 194.910 C 217.978 193.563,218.397 192.121,218.518 191.706 C 219.299 189.029,219.301 189.033,216.627 188.309 C 213.785 187.540,210.686 187.664,206.300 188.723 C 204.140 189.244,203.388 189.288,202.623 188.940 C 200.451 187.950,189.652 189.157,179.297 191.547 C 177.448 191.974,174.309 192.649,172.322 193.047 C 166.033 194.307,160.118 195.602,157.650 196.260 C 153.682 197.317,152.515 195.737,153.728 190.952 C 153.938 190.123,154.211 188.638,154.333 187.653 L 154.557 185.862 143.057 185.862 L 131.557 185.862 131.660 192.554 M142.667 209.963 C 143.102 211.607,143.576 213.070,143.721 213.215 C 144.275 213.769,154.929 211.510,162.345 209.265 C 170.042 206.935,170.260 207.006,155.292 206.989 L 141.876 206.975 142.667 209.963 M136.357 209.546 C 136.234 210.157,136.031 211.069,135.905 211.572 C 135.719 212.312,135.870 212.576,136.689 212.950 C 138.054 213.572,138.144 213.380,137.578 211.050 C 136.967 208.535,136.639 208.132,136.357 209.546 M16.855 231.109 C 11.421 235.383,19.400 258.564,29.743 268.549 L 32.349 271.065 36.001 271.065 L 39.652 271.065 38.653 269.878 C 35.137 265.698,32.823 256.013,32.806 245.397 L 32.799 241.407 29.929 238.318 C 23.893 231.820,19.223 229.246,16.855 231.109 M68.752 235.788 C 67.011 236.333,63.550 238.232,62.390 239.278 C 61.973 239.654,60.428 241.019,58.955 242.311 L 56.278 244.660 56.072 250.040 C 55.895 254.669,54.880 261.544,54.058 263.687 C 53.683 264.664,56.096 263.702,58.944 261.738 C 63.863 258.346,70.049 249.715,72.570 242.727 C 74.677 236.886,73.292 234.368,68.752 235.788 " stroke="none" fill="#fbd49d" fill-rule="evenodd"></path><path id="path6" d="M102.725 52.780 C 102.725 69.887,102.771 76.885,102.827 68.332 C 102.884 59.779,102.884 45.782,102.827 37.229 C 102.771 28.676,102.725 35.674,102.725 52.780 M173.711 117.144 C 174.388 117.228,175.406 117.226,175.973 117.140 C 176.539 117.054,175.985 116.986,174.741 116.988 C 173.497 116.990,173.033 117.060,173.711 117.144 M173.065 124.197 C 172.659 124.687,172.748 124.837,173.648 125.180 C 175.052 125.713,176.526 125.340,176.365 124.492 C 176.199 123.616,173.730 123.396,173.065 124.197 M183.081 124.208 C 183.206 124.532,183.077 125.092,182.794 125.452 C 182.330 126.045,182.344 126.058,182.941 125.590 C 183.670 125.018,183.804 124.204,183.228 123.848 C 183.013 123.716,182.951 123.868,183.081 124.208 M185.984 124.260 C 185.741 124.895,186.448 125.558,187.148 125.350 C 187.374 125.283,188.040 125.122,188.629 124.992 C 189.515 124.797,189.620 124.662,189.243 124.207 C 188.613 123.449,186.281 123.487,185.984 124.260 M222.230 136.287 L 222.243 142.696 224.036 142.730 L 225.830 142.765 224.139 142.616 L 222.449 142.466 222.333 136.172 L 222.216 129.877 222.230 136.287 M234.663 138.549 L 234.684 142.696 236.381 142.726 L 238.077 142.757 236.488 142.612 L 234.898 142.467 234.770 138.434 L 234.642 134.402 234.663 138.549 M235.910 134.856 C 236.376 134.946,237.139 134.946,237.606 134.856 C 238.073 134.766,237.691 134.693,236.758 134.693 C 235.825 134.693,235.443 134.766,235.910 134.856 M232.297 140.697 L 232.234 142.468 230.254 142.606 L 228.275 142.745 230.266 142.814 C 232.519 142.893,232.745 142.648,232.511 140.379 C 232.366 138.983,232.358 138.995,232.297 140.697 M288.507 165.398 C 289.080 165.484,289.928 165.482,290.392 165.393 C 290.855 165.303,290.386 165.232,289.350 165.235 C 288.313 165.238,287.934 165.311,288.507 165.398 M290.952 170.309 C 292.663 170.379,295.462 170.379,297.172 170.309 C 298.883 170.239,297.484 170.182,294.062 170.182 C 290.641 170.182,289.241 170.239,290.952 170.309 M134.684 206.876 C 135.877 206.951,137.828 206.951,139.020 206.876 C 140.212 206.801,139.237 206.740,136.852 206.740 C 134.467 206.740,133.492 206.801,134.684 206.876 M302.833 206.868 C 303.406 206.955,304.254 206.952,304.718 206.863 C 305.181 206.773,304.713 206.703,303.676 206.705 C 302.639 206.708,302.260 206.781,302.833 206.868 M308.111 206.868 C 308.684 206.955,309.532 206.952,309.996 206.863 C 310.459 206.773,309.991 206.703,308.954 206.705 C 307.917 206.708,307.538 206.781,308.111 206.868 M142.193 209.048 C 142.188 209.851,143.160 213.079,143.214 212.441 C 143.232 212.234,143.010 211.216,142.722 210.179 C 142.434 209.142,142.195 208.633,142.193 209.048 M137.282 209.991 C 137.282 210.302,137.428 210.895,137.606 211.310 C 137.810 211.785,137.930 211.855,137.930 211.499 C 137.930 211.188,137.784 210.594,137.606 210.179 C 137.402 209.704,137.282 209.634,137.282 209.991 M57.703 238.125 C 57.260 238.877,56.958 239.553,57.034 239.629 C 57.109 239.704,57.551 239.089,58.016 238.262 C 59.071 236.383,58.801 236.265,57.703 238.125 M51.555 271.338 C 52.229 271.421,53.332 271.421,54.006 271.338 C 54.680 271.254,54.128 271.186,52.780 271.186 C 51.433 271.186,50.881 271.254,51.555 271.338 " stroke="none" fill="#d6a3b4" fill-rule="evenodd"></path><path id="path7" d="M104.946 90.104 C 104.946 92.281,105.009 93.172,105.085 92.083 C 105.161 90.994,105.161 89.213,105.085 88.124 C 105.009 87.036,104.946 87.926,104.946 90.104 M101.324 93.763 C 101.793 93.854,102.471 93.850,102.832 93.756 C 103.192 93.661,102.809 93.588,101.979 93.592 C 101.150 93.596,100.855 93.673,101.324 93.763 M159.567 117.436 C 159.571 118.266,159.649 118.561,159.739 118.092 C 159.829 117.623,159.826 116.944,159.731 116.584 C 159.637 116.223,159.563 116.607,159.567 117.436 M177.843 117.143 C 178.512 117.226,179.700 117.228,180.482 117.146 C 181.264 117.064,180.716 116.996,179.265 116.995 C 177.813 116.993,177.173 117.060,177.843 117.143 M165.261 122.033 C 164.816 122.120,164.137 122.563,163.753 123.018 C 163.057 123.841,163.058 123.842,163.837 123.186 C 164.268 122.823,164.895 122.526,165.229 122.526 C 165.563 122.526,165.942 122.356,166.070 122.149 C 166.198 121.942,166.250 121.795,166.186 121.823 C 166.122 121.851,165.706 121.946,165.261 122.033 M182.344 122.047 C 182.238 122.218,182.453 122.759,182.822 123.247 C 183.326 123.916,183.567 124.016,183.793 123.650 C 184.005 123.308,183.946 123.255,183.595 123.472 C 183.237 123.693,183.160 123.611,183.325 123.181 C 183.568 122.547,182.674 121.514,182.344 122.047 M162.865 124.954 C 162.865 125.460,163.004 125.960,163.174 126.065 C 163.344 126.170,163.409 125.756,163.320 125.145 C 163.122 123.798,162.865 123.690,162.865 124.954 M182.879 125.691 C 182.524 126.119,182.533 126.220,182.920 126.163 C 183.440 126.087,183.776 125.592,183.497 125.313 C 183.406 125.222,183.128 125.392,182.879 125.691 M176.677 127.344 C 176.555 127.541,176.778 127.995,177.172 128.352 C 177.802 128.922,177.878 128.928,177.800 128.398 C 177.678 127.570,176.957 126.892,176.677 127.344 M167.665 137.431 C 166.891 137.957,166.258 138.468,166.258 138.567 C 166.258 138.667,166.937 138.299,167.766 137.750 C 169.083 136.878,169.528 136.475,169.173 136.475 C 169.118 136.475,168.439 136.905,167.665 137.431 M154.787 185.739 C 154.655 186.084,154.747 186.549,154.991 186.774 C 155.320 187.075,155.360 187.048,155.144 186.669 C 154.976 186.373,155.049 186.033,155.317 185.867 C 155.610 185.686,155.643 185.493,155.405 185.346 C 155.197 185.218,154.919 185.395,154.787 185.739 M217.369 195.880 C 217.230 196.432,217.190 196.957,217.279 197.046 C 217.367 197.135,217.554 196.756,217.692 196.203 C 217.831 195.651,217.872 195.126,217.783 195.037 C 217.694 194.948,217.508 195.327,217.369 195.880 M191.994 197.820 C 192.567 197.907,193.415 197.904,193.879 197.815 C 194.343 197.725,193.874 197.654,192.837 197.657 C 191.800 197.660,191.421 197.733,191.994 197.820 M201.979 197.830 C 203.690 197.900,206.489 197.900,208.200 197.830 C 209.910 197.760,208.511 197.703,205.090 197.703 C 201.668 197.703,200.269 197.760,201.979 197.830 M208.417 199.717 C 218.022 199.773,233.630 199.773,243.101 199.717 C 252.572 199.661,244.713 199.615,225.636 199.615 C 206.560 199.615,198.811 199.661,208.417 199.717 M241.179 206.870 C 241.848 206.953,243.036 206.954,243.818 206.873 C 244.600 206.791,244.053 206.723,242.601 206.721 C 241.150 206.720,240.510 206.786,241.179 206.870 M235.914 207.241 C 236.383 207.331,237.061 207.328,237.422 207.234 C 237.782 207.139,237.399 207.065,236.569 207.070 C 235.740 207.074,235.445 207.151,235.914 207.241 M58.624 242.197 C 56.764 243.864,56.316 244.114,56.106 243.602 C 55.870 243.029,55.847 243.030,55.823 243.616 C 55.772 244.838,56.379 244.589,58.813 242.390 C 60.160 241.172,61.178 240.174,61.074 240.172 C 60.971 240.171,59.868 241.082,58.624 242.197 M170.259 252.901 C 170.154 253.071,170.568 253.136,171.179 253.046 C 171.790 252.957,172.290 252.818,172.290 252.738 C 172.290 252.450,170.446 252.598,170.259 252.901 M58.247 262.253 C 57.569 262.829,57.430 263.059,57.901 262.825 C 58.592 262.482,59.888 261.241,59.518 261.277 C 59.441 261.284,58.869 261.723,58.247 262.253 M54.854 264.104 C 53.907 264.560,53.876 264.612,54.665 264.421 C 55.184 264.296,55.769 264.044,55.966 263.860 C 56.455 263.403,56.186 263.462,54.854 264.104 M266.635 291.306 C 266.998 291.401,267.592 291.401,267.955 291.306 C 268.318 291.211,268.021 291.134,267.295 291.134 C 266.569 291.134,266.272 291.211,266.635 291.306 M247.597 301.491 C 248.063 301.581,248.827 301.581,249.293 301.491 C 249.760 301.401,249.378 301.328,248.445 301.328 C 247.512 301.328,247.130 301.401,247.597 301.491 " stroke="none" fill="#ad9471" fill-rule="evenodd"></path></g></svg>